<svg xmlns="http://www.w3.org/2000/svg" viewBox="0 0 400 221.702"><path d="M173.79.772c2.253-.339 2.739-.524 3.437-.095.587.36.918.389 1.179 1.023.128.31-.02.563-.081.851-.162.757-.249 1.529-.372 2.294-2.056 12.772-2.425 11-2.597 12.766a36.44 36.44 0 01-1.112 4.861 5.067 5.067 0 01-.605 2.04.935.935 0 00-.14.51 13.223 13.223 0 01-.495 2.81 20.003 20.003 0 01-.434 2.82 1.507 1.507 0 00-.08.529c.053 1.497-2.024 9.15-2.056 9.221a5.668 5.668 0 00-.484 2.43c.01.577-.773 2.237-1.095 4.309-.108.691-.436 1.348-.535 2.064a7.169 7.169 0 01-.441 1.89c-.39.89-.233 1.898-.704 2.751-.21 1.595-.885 3.078-1.134 4.667-.064.402-.355.768-.428 1.17a29.154 29.154 0 01-.974 3.601c-.067.634.112 1.321-.405 1.857-.556 2.305-.403 1.831-.464 1.904a4.712 4.712 0 00-.698 2.886c-2.103 2.702-1.185 1.382-4.958 3.245a2.694 2.694 0 01-.66.264c-4.879.935-3.812-.765-6.284-.535-1.053-1.383-1.88-2.994-1.182-4.596.439-1.007.094-2.177.538-3.304a10.055 10.055 0 00-.114-4.215c-.465-3.447-.555-3.733-.426-4.065.494-1.27.14-1.318.99-4.947-.863-2.025-.122-1.535-.767-3.41a16.531 16.531 0 01-.47-2.813c-.006-.564.258-1.701.206-2.124-.466-3.828.663-3.597-.5-7.61-.08.044-.206.072-.226.134-.32 1.002-2.188 10.921-2.407 11.694-1.302 4.592-.496 5.755-1.062 6.823-.708 1.335-.311 2-.88 3.8-.503 1.597-.69 3.257-1.067 4.878-1.154 4.956-1.04 2.935-1.174 5.752.209.881-.465 1.573-.52 2.401-.01.155-.172.305-.279.447-.985 1.31-1.128 1.584-1.548 1.658-1.523.267.197.38-4.272 1.713-1.467.437-2.588-.987-5.746-.739l-1.504-2.105c-.164-1.286.53-2.28.785-4.274.24-1.866.674-1.51.96-3.78a15.573 15.573 0 00.48-2.084 3.827 3.827 0 01.335-1.192c.787-2.26.236-2.922 1.664-8.187.01-.64.898-4.068.858-5.639-.018-.722.48-1.353.4-2.091.986-2.3.28-3.098 1.078-4.837.639-1.393.05-1.792.415-2.421a5.865 5.865 0 00.507-1.887c.033-.161.483-2.179.547-2.248.733-.792.733-1.864 1.08-2.803.626-1.704 1.118-2.291.79-3.432a5.722 5.722 0 001.348-2.286 16.458 16.458 0 014.18-4.582 25.4 25.4 0 015.44-2.238 2.261 2.261 0 012.155.564c1.18 1.11.432 1.227.71 1.724.596 1.064.474 2.25.61 5.114.058 1.23.425.583.356 2.82-.045 1.473.294 3.296.313 4.99.005.478.359.875.275 1.39-.113.694-.405 9.54-.001 10.86 1.066 3.488.679 3.813 1.173 4.216.482.395 1.046-2.344 1.089-2.808a14.755 14.755 0 01.995-3.865 2.326 2.326 0 01-.173-.738c.074-.523 1.772-7.333 1.738-7.635a8.921 8.921 0 01.425-2.794c1.966-10.493 2.364-9.52 2.438-10.59.084-1.212.382-1.151.693-2.38a9.931 9.931 0 011.31-3.292c.356-.516.3-1.144.544-1.69.218-.487.649-.851.738-1.414.259-1.622 1.22-2.954 1.877-4.41.51-1.13 1.07-.572 2.033-1.938 3.38-4.793 1.036-2.754 4.866-5.648zm-42.43 1.321c.318-1.965-3.195-2.976-5.158-1.094a12.388 12.388 0 01-3.601 1.919c-1.015.257-2.586 1.542-2.59 2.472a.654.654 0 01-.302.615c-1.013.417-1.365 3.506-1.784 4.541-.074.181.114.815.001 1.055-.455.976-.116 4.806-.453 7.111-.333 2.28.141 1.87-.342 3.163-.898 2.403-.195 3.268-.984 4.29-.211.273.017 1.326-.564 2.212a.483.483 0 00-.072.341c.166.646-.27 1.142-.41 1.71a9.75 9.75 0 01-.423 1.172c-.187.478.141.928.054 1.408-.075.408-.036.838-.117 1.244-.27 1.363.273 1.912-.31 2.134-.256.098-.173.146-1.33-4.514a.566.566 0 01-.014-.178c.053-.675-.442-1.213-.46-1.88a8.065 8.065 0 00-.83-1.966c-.165-.44-.173-.916-.388-1.361a17.83 17.83 0 01-.94-3.43 25.255 25.255 0 01-2.009-9.164 4.83 4.83 0 00-.458-2.24c-.372-.735-.542-1.561-.911-2.317-.56-1.147-.102-3.795-2.525-5.065a1.55 1.55 0 00-1.03-.206c-3.975.767-2.742 1.28-4.604 1.32a12.942 12.942 0 01-2.501-.033 2.124 2.124 0 00-1.407.125c-2.715 1.6-3.226 1.754-3.057 5.17.06 1.192-.616 1.509-.631 3.49-.02 2.487-.711 4.66-.476 8.74.134 2.312-.148 1.123-.211 3.012a33.896 33.896 0 01-.274 3.379 14.751 14.751 0 01.031 3.202 34.315 34.315 0 01-.393 4.96 14.687 14.687 0 00.071 2.132c-.125 1.672.156 2.632-.064 3.201-.389 1.004.1 2.15-.231 3.722-.397 1.88.574 4.232 2.73 4.427a5.685 5.685 0 011.243.072 6.425 6.425 0 002.47.248c1.65.085 2.117-.796 3.126-1.153a9.239 9.239 0 003.23-2.16c1.737-1.339.326-4.747 1.131-10.108.196-1.304-.302-.917.208-5.7a4.386 4.386 0 00.088-1.581c-.119-.48.3-1.906.188-6.785-.015-.666.1-1.292.442-4.439.034-.315.532-.178.563-.103a6.983 6.983 0 01.335 1.01c1.079 4.441.803 2.26 1.734 6.15.194.808.647 1.524.806 2.344.26 1.353.59.523.708 2.36a15.213 15.213 0 00.723 3.103 14.029 14.029 0 00.077 1.426 13.307 13.307 0 01.633 2.76 9.022 9.022 0 00.385 2.457c.702 1.33 1.014 5.601 1.056 6.665a6.513 6.513 0 00.575 2.942 1.107 1.107 0 01.084.86c-.517 1.082.131 2.874-.567 3.994-.531.85-.416 2.163-.514 4.398a1.543 1.543 0 00.537 1.279c.623.524 1.035 1.322 1.941 1.507.33.068.823 1.66 2.416 1.492 1.89-.201 1.732-.544 2.566-1.38a1.55 1.55 0 01.552-.44c.808-.243 1.404-.902 2.242-1.092a9.8 9.8 0 001.774-1.182c2.316-1.588 1.228-3.238 1.978-5.847.624-2.171.312-5.425.985-6.85.588-1.242.387-1.58.694-3.469.152-.937.428-1.848.515-2.803.364-3.998.298.742.75-7.446.063-1.13.461-1.87.631-4.6.137-2.194.717-2.741.697-3.671-.053-2.42.71-1.874 1.14-8.293.185-2.756.008-4.187.422-5.52.337-1.087-.157-2.42.225-3.904.077-.3.031-4.445.179-5.36zM.702 72.6a3.11 3.11 0 00-.632 2.169 4.535 4.535 0 00.31 2.622c.804 1.554 1.162 3.913 3.988 4.952 6.94 2.553 7.626 1.418 11.74 1.494a17.85 17.85 0 007.867-3.176c1.172-.874 8.322-3.771 12.898-13.581 2.262-4.851 1.087-2.837 1.651-4.305a26.922 26.922 0 002.907-7.606 8.341 8.341 0 00.468-2.247 61.77 61.77 0 001.469-7.853 2.814 2.814 0 01.18-1.05 11.447 11.447 0 00.36-2.107c.416-1.558.142-3.245.433-4.976.17-1.007.082-2.028.275-3.026-.266-3.252.52-6.046.072-8.568a1.356 1.356 0 01.027-.694c.421-1.08.24-8.393.112-9.634-.13-1.256.04-2.5.01-3.749-.113-4.75.425-4.098-.514-5.583-.892-1.41-2.263.27-3.664-.544-.801-.466-.333.198-5.134.246a3.109 3.109 0 00-1.063.099c-.962.372-2.844.194-4.27.255-2.183.093-3.95.942-6.185.434-2.123-.482-6.838.15-9.446.405-2.106.205-1.876-.216-2.831.106-2.658.896-5.778.241-5.484 1.303a3.427 3.427 0 001.71 2.57 6.38 6.38 0 002.132.867 38.856 38.856 0 004.295-.052c3.148-.306 10.565-.302 12.844-.815a8.996 8.996 0 012.137-.18c.582.01.768.163.825.691.386 3.54-.085 3.914.412 6.765a24.528 24.528 0 01-.122 4.788c.27.87.137 1.786.32 2.662a1.976 1.976 0 01-.098 1.391c-.117.227.125 1.087.076 1.39-.466 2.843.05 5.018-.133 6.77a13.855 13.855 0 00-.213 3.558c.022.143-.353 3.4-.495 4.076-.437 2.073.04 4.636-.728 6.368a9.226 9.226 0 00-.346 2.28c.047.516-.317.893-.35 1.368a6.66 6.66 0 01-.513 2.776c-.146.289-.012.707-.059 1.059-.102.767-.736 1.365-.715 2.181.01.38-.719.496-1.202 2.356a18.493 18.493 0 00-.824 2.144c-.218 1.625-1.33 2.324-1.399 3.033-.293 3.01-3.424 5.11-4.188 6.93a8.972 8.972 0 01-2.464 2.02c-.416.16-.94.88-1.208 1.026-3.35 1.815-2.513 1.282-4.496 1.494-.296.032-.587.119-.883.144a7.22 7.22 0 01-5.743-1.527 45.138 45.138 0 01-1.246-5.691c-.023-.17-.345-.398-.542-.405a3.074 3.074 0 00-2.008.618c-.336.252-.12.636.041 1.154a3.65 3.65 0 01-.36.805zM248.82 46.86c.005-.823.31-3.263.989-3.734.793-.55.417-1.083 1.261-2.289a26.342 26.342 0 012.44-2.834 25.084 25.084 0 002.361-3.368c.39-.779 1.308-1.323 2-2.952a.211.211 0 01.142-.102c.885-.136.59 1.392.86 2.208.545 1.65.07 4.137.764 5.822a16.678 16.678 0 01.097 2.489 1.663 1.663 0 00-.023.71c.516 1.982-.766 3.943.323 6.544a22.062 22.062 0 01.011 7.087c-.241.991-.804 1.618-.395 2.39.913 1.723 2.147 1.277 3.578 1.376a5.455 5.455 0 002.543-.75 2.76 2.76 0 00.863-2.403c-.096-.378.097-.822.061-1.227-.112-1.248-.467-.067-.284-4.071a8.478 8.478 0 00-.074-2.14c-.233-1.118.325-1.086-.168-2.987a5.394 5.394 0 01-.301-1.204c-.013-.893-.21-1.77-.153-2.673.225-3.61-.465-3.552-1.09-8.292a5.553 5.553 0 01-.298-1.925 13.015 13.015 0 01-.496-2.263c-.03-.321.3.942-1.353-3.686-.266-.746.378-1.021.659-1.563.901-1.742 2.054-2.996 2.454-3.728.286-.524.405-1.118.642-1.654a14.067 14.067 0 01.994-1.478c.566-.93-.772.942 3.04-5.252a3.605 3.605 0 01.621-.87c1.198-1.034 1.782-2.716 3.283-4.226a8.023 8.023 0 001.362-1.872.939.939 0 00-.39-1.084 8.06 8.06 0 00-1.335-.493c-2.333-.551-3.696 3.344-6.504 6.107-4.068 4.005-4.709 9.92-9.313 13.378a22.46 22.46 0 00-4.83 6.116c-.885 2.363-.955 1.926-2.178 4.016-.884 1.512-.762 1.464-1.123 1.504-.303.035-.326.192-.25-5.396a4.943 4.943 0 00.254-2.283 19.642 19.642 0 01.287-2.125 13.884 13.884 0 00.23-3.734 1.696 1.696 0 01.025-.709c.39-1.102.282-8.593.385-9.078.582-2.756.015-4.865.592-8.018.106-.582.151-1.837-.447-1.927-6.345-.957-2.94.242-9.506.666a2.73 2.73 0 00-1.334.459c-2.288 1.474-1.6 4.372-2.076 5.094a6.179 6.179 0 00-.495 1.693c-.409 1.268.042 1.701-.156 2.657a16.527 16.527 0 01-.585 3.491c-.08.184-.013.02-.112 5.364a18.415 18.415 0 01-.117 2.856c-.273 1.54-.125 3.626-.333 4.8-.315 1.787-.287 2.945-.72 5.116-.626 3.145.24 4.222.073 6.043-.08.88.157 5.762-.02 6.064-.601 1.028.093 2.425-.533 3.296a1.138 1.138 0 00-.214.85 21.214 21.214 0 00.34 3.373c.287.88-.865 3.565 1.368 4.34 1.96.68 2.033.605 2.449.998.37.351 3.37.145 3.69.016a9.447 9.447 0 011.745-.314c.637-.133 1.104-.676 1.745-.857a2.685 2.685 0 001.718-1.465c.404-.807.955-.077.707-2.395-.263-2.452.228-3.418.25-7.502zM77.29 50.981c.28 1.034.687 18.461 1.09 20.142a7.486 7.486 0 01-.017 3.536c-.494 2.093.253 3.417.237 6.033-.007 1.013 1.753 1.185 2.741.94.807-.2 1.598-.471 2.387-.74a.683.683 0 00.376-.353 3.1 3.1 0 00.417-2.053 1.812 1.812 0 01.025-.533c.089-2.681-.356-3.292-.267-4.627.238-3.59-.61-7.287-.764-15.858a5.001 5.001 0 00-.138-1.058c-.292-1.228-.108-2.493-.309-3.726a6.998 6.998 0 00-.03-1.962c-.12-1.09.293-1.488-.043-2.11.052-2.512-.318-4.64-.247-5.536a4.023 4.023 0 00-.156-2.287c-.346-.672.39.764-.249-5.704-.206-2.093.581-2.71-.114-3.67a34.121 34.121 0 00-.35-3.723c-.063-.259-.642-7.027-.627-7.11.295-1.68-.181-2.61-.584-7.993a9.84 9.84 0 00-.507-2.262c-.384-1.186-1.264-1.092-2.265-1.494a1.766 1.766 0 00-1.223-.05 8.337 8.337 0 01-3.536.001 5.199 5.199 0 00-2.379-.687c-2.43-.43-3.685.365-5.199 1.687-1.04.908-.551 1.78-1.185 2.541-.851 1.022-1.04 2.688-1.237 2.916a7.567 7.567 0 00-.765 1.409 20.467 20.467 0 00-1.657 3.147 42.077 42.077 0 01-2.6 5.974c-.563.874.37 1.133-.432 1.79-.7.572-.65 1.93-1.404 3.007a1.417 1.417 0 00-.254.652c-.09 1.017-.999 2.25-1.025 2.641a6.69 6.69 0 01-.575 1.68 4.363 4.363 0 01-.807 1.764 7.815 7.815 0 00-.544 1.875c-.01 1.165-.973 2.096-1.327 3.661a11.715 11.715 0 01-1.059 2.422 5.222 5.222 0 01-.979 2.08c-.284.472-.268 1.031-.597 1.473a2.235 2.235 0 00-.213.67c-.768 2.478-.842 2.024-.573 4.517l1.232 1.464c5.252 1.39 3.826 1.152 6.513 1.155.72 0 .893-.048 4.646-2.187 1.898-1.082 1.06-1.92 2.1-2.979a2.465 2.465 0 00.677-.908c-.322-1.724.42-2.794 1.628-5.862a29.236 29.236 0 001.424-3.645c.12-.522.733-.746 1.248-.207a9.27 9.27 0 003.385 1.539c2.209.554 1.75 1.249 2.822 1.762 1.008.484 1.286 1.017 2.705 2.243.74 1.637.262 3.415.584 4.603zm-1.356-26.607a.477.477 0 01.054.338c-.348.756-.038 1.525-.063 2.286-.154 4.65.823 5.047.444 6.87-.185.886.01 1.775-.131 2.658a4.391 4.391 0 00.124 1.058c.029.296.043.594.043.89a.779.779 0 01-.768.61c-.731-.082-1.228-.391-1.904-.41a.546.546 0 01-.328-.124c-.524-.478-1.222-.772-1.588-1.414-1.237-2.17-3.21-1.124-2.328-3.294 3.113-7.653 2.89-7.419 5.63-13.196.083-.175.634-.238.617.19a11.434 11.434 0 00.198 3.538zM224.262 40.54a3.54 3.54 0 00-2.014 2.936 6.359 6.359 0 01-1.389 3.177c-.67.603-1.003 2.546-2.93 2.895-1.165.211-.79 1.143-1.032 1.241-1.58.64-1.93 1.881-2.332 1.331-1.172-1.599.177-1.82-.337-2.475-1.078-1.375-.38-11.055.266-13.052a1.396 1.396 0 00.057-.705c-.306-1.327.313-2.58.286-3.882a.277.277 0 01.041-.172c.72-.848.123-2.583.986-4.66a16.269 16.269 0 011.299-3.88 23.879 23.879 0 001.808-4.27 24.788 24.788 0 012.109-3.304c.728-1.154 3.742-4.463 4.511-2.62.067.161.076.377.19.482a1.927 1.927 0 01.504.907 11.458 11.458 0 01.226 3.374c.012.46-.457.414-.715 1.383a10.607 10.607 0 01-.405 1.546c-.212.483-.668.868-.842 1.358-.298.84-.761 1.044-1.145 1.781-.386.741.767 2.192 2.169 1.808a3.836 3.836 0 002.504-1.582c.288-.475 1.098-.608 1.698-3.451.543-2.573.255-2.516.444-5.69.045-.76-.602-.957-.55-1.432a7.596 7.596 0 00-.844-3.426 2.737 2.737 0 00-1.855-1.763 45.1 45.1 0 00-2.461-.992 7.311 7.311 0 00-2.42-.58c-1.477-.006-1.65-1.026-2.143-1.106-.645-.105-1.381-.708-2.01-.698-4.28.063-3.01.275-8.828 4.704-1.858 1.414-2.037 2.977-2.665 3.715-1.963 2.31-2.663 4.78-3.214 5.547a16.995 16.995 0 00-1.904 4.97 8.157 8.157 0 00-.566 2.412c-.474.844.203 1.181-.053 1.71-.467.96.061 1.483-.417 2.979-.917 2.868-.327 4.099-.678 4.935-.62 1.476.419 3.43.028 4.216-.24.484-.095-.089-.54 5.65a.681.681 0 00.045.348c.479.931-.123 1.667.59 3.32.908 2.11.49 2.715 1.267 4.433.137.302.471.515.716.768.8.053 1.355.734 2.148.835a2.24 2.24 0 01.8.372 6.677 6.677 0 002.55.698c.729-.08 1.174.437 2.08.408 5.276-.17 4.663-.434 6.051-.39a4.349 4.349 0 002.542-1.516c.381-.532 1.155-.197 1.622-.616.176-.158.38-.283.57-.426 1.02-.769 1.456-2.025 2.386-2.871.078-.07.085-.217.125-.329.638-1.798 1.351-2.17 2.003-3.772.272-.669.63-.256 2.325-2.922.526-.828.843-1.36 1.425-1.545.894-.285.57-1.494.413-3.09-4.473-1.326-2.611.645-4.495.978zm-43.9-5.336c-1.404 28.962-3.034 24.626-2.124 25.608a4.457 4.457 0 01-.227 1.032c-.431.905.123 1.012-.208 1.71-.342.722.133 1.154.653 1.898.742 1.06 1.36.389 2.205.957.537.361 1.237.358 1.79.716.131.085.252.039 2.482-.163 1.289-.117.628-.727 2.151-.687a1.6 1.6 0 001.169-.364c1.115-1.029 3.173-2.423 3.036-3.776-.16-1.586.628-2.874.548-4.746a8.253 8.253 0 01.307-3.36c.176-.465-.183-.987.488-1.86.291-.38-.174-.534-.137-1.53.12-3.187.557-2.281.423-5.152-.041-.871.15-3.039.171-3.196.253-1.843-.334-3.589.692-10.26.011-.072.776-11.492.762-11.564-.369-1.822.631-1.776.223-3.854a1.268 1.268 0 00-1.058-1.071 4.529 4.529 0 00-2.465.088c-5.605 1.903-6.087 3.07-8.433 6.147a13.867 13.867 0 00-.964 2.095c-.457 1.435-.286 1.96-.458 2.263-.629 1.105.177 1.509-.215 2.235a3.956 3.956 0 00-.54 2.573 3.958 3.958 0 01-.13.929 12.204 12.204 0 01-.14 3.332zM40.386 128.699c.667 1.24 1.085.913 1.391 1.342.517.723.707.206 1.905.855.627.34 1.364-.102 2.287-.008 1.058.108 1.935-.59 2.96-.592a8.392 8.392 0 003.975-2.601 3.692 3.692 0 00.454-2.396c-.315-1.055.606-3.232.552-6.358a34.234 34.234 0 01.578-4.068c.08-.53.01-3.177.17-4.645.5-4.545.131-5.322.601-5.374a.342.342 0 01.29.133c.48 1.213 1.059 1.232 1.192 1.753a2.665 2.665 0 00.822 1.145c1.33 1.394 1.677.684 3.676 3.313 1.736 2.283 2.196 1.915 2.228 3.115.01.35.191.713-.038 1.043a2.122 2.122 0 00-.286 1.37c.045 1.251-.818.125-.631 5.983a2.272 2.272 0 01-.002.707 39.585 39.585 0 00-.676 4.411c-.077.41-.226.792-.293 1.19a8 8 0 00.025 1.248c-.007 1.36-.432 3.138-.47 4.078a18.407 18.407 0 01-.557 3.336c-.43 1.898-.343 3.284-.932 4.686-.498 1.184-.406 3.628.658 4.329a13.189 13.189 0 001.12.876c2.298 1.166 6.675.55 8.652-.585 1.403-.806 1.516-1.14 2.636-2.589.093-.76.526-1.436.548-2.213a8.96 8.96 0 01.09-1.959c.097-.373 1.155-5.617 1.125-5.724-.288-1.036.343-1.987.267-3.001a3.825 3.825 0 00.32-1.735 24.56 24.56 0 00.556-4.228 6.665 6.665 0 01.652-2.024c-.763-.923-.264-1.143.017-2.497a35.244 35.244 0 01.65-4.21c.682-3.647.119-2.81.38-3.359a4.254 4.254 0 00.222-1.585c.095-1.276.412-1.31.366-2.466a4.021 4.021 0 01.408-1.36c.16-.518-.145-1.085.115-1.586.348-.672.106-1.707.259-2.469.374-1.86.06-1.752.599-8.018a8.043 8.043 0 00.476-2.62c.178-2.407.762-1.585.645-3.471a1.455 1.455 0 00-1.375-1.395c-1.238-.116-1.509.246-2.655-.294a7.104 7.104 0 01-3.064.765c-5.29-.12-4.956.464-6.423 2.364 0 .343.076 3.542-.42 4.22-.607.83-.517 3.909-.97 5.234-.686 1.999-.344 3.444-.692 4.384a12.092 12.092 0 00-.193 1.392 5.464 5.464 0 01-.445.985c-.68-.102.15.327-3.623-1.887-.33-.558-1.034-.803-1.228-1.483a6.018 6.018 0 00-.316-.638c-.519-1.23-1.747-.707-2.695-2.135a3.798 3.798 0 00-.942-.746c0-2.684 1.713-21.179 1.364-24.321-.197-1.77.372-2.067.334-3.885-.075-3.577.859-2.783.046-4.966-4.791-.433-5.72 1.119-8.794.78a4.14 4.14 0 00-4.362 3.83 23.205 23.205 0 01-.633 4.046c.768 1.122.206.61.219 4.894.005 1.955-.41 1.729-.402 2.249.01.725.363.683.258 1.916-.29 3.409-.083 4.314-.408 6.416a13.151 13.151 0 01-.466 4.417c-.046.172-.53 6.518-.48 9.096.04 2.092-.804 3.874-.446 5.859a38.345 38.345 0 01-.54 5.681c-.359.956.386 1.733-.205 3.142a4.289 4.289 0 00-.238 1.401c-.176 2.431-.478 2.882-.347 4.092a.78.78 0 01-.276.63c-.347.357-.257.84-.257 1.602.211.358.466.763.692 1.183zm112.958-.296c.71.33 1.522.223 2.242.515a.256.256 0 00.175-.023 5.415 5.415 0 011.765-.22c.6-.058 4.66-1.503 5.2-2.213 1.824-2.401.667-1.195 1.78-6.395.016-.072 1.686-11.34 1.672-11.627.433-.756.158-1.635.425-2.433.383-1.142-.497-1.569-.016-2.608a.16.16 0 01.145-.049c.45.344.251 2.221.71 3.437.2.528-.096 1.598.018 1.948.192.589-.147 1.198.117 1.762.28.6-.057 1.17-.067 1.756-.027 1.49-.098 2.972.012 4.467.28 3.816-.157 3.486.127 4.628.56 2.246-.41 3.091-.11 3.877.897 2.344-1.374 10.27-1.747 11.323-.224.633.639 1.656.83 2.69a10.182 10.182 0 001.226 2.763 2.305 2.305 0 002.566 1.21c1.375-.292 4.366.157 7.443-2.076.488-.354 1.032-.625.98-1.36-.03-.433.79-.549.846-2.669.072-2.745 1.131-3.822 1.052-4.267a3.071 3.071 0 01.187-1.227c.166-.758.113-1.542.33-2.299.154-.532-.377-.712.03-2.09a36.82 36.82 0 001.141-4.656 7.803 7.803 0 00.289-1.216c.114-1.304.745-2.52.64-3.86-.018-.238.45-1.027.527-1.51.332-2.104 2.73-10.453 2.701-12.916.419-.998.256-1.223.866-4.91a18.718 18.718 0 00.474-4.257 2.094 2.094 0 01.232-1.214 35.06 35.06 0 00.494-3.892 2.35 2.35 0 00.033-.708c-.61-2.977.907-6.734-1.771-6.993-.592-.057-1.19-.055-1.742-.078-1.94.786-3.643 2.305-4.481 2.653-1.2.497-.749 1.189-1.798 1.654a3.959 3.959 0 00-1.67 1.163 5.232 5.232 0 01-.99 2.923c-.126.448-.24.9-.36 1.352a1.458 1.458 0 01-.099 1.366 10.447 10.447 0 01-.816 3.451c-.223.577-.1 1.194-.314 1.752-1.007 2.63-.315 1.638-.84 3.978-1.044 4.652-.203 1.637-1.06 6.856a3.021 3.021 0 01-.415.803c-.464-1.027.009-1.564-.277-2.465-.096-.303.207-.283.062-1.582-.033-.293-.13-.582-.142-.875-.123-3.161-.522-2.475-.498-3.128.052-1.427-.455-2.827-.207-4.267a17.52 17.52 0 01-.2-4.083c.082-1.281.004-3.905-.848-4.827a4.286 4.286 0 01-.331-1.731c.206-1.176-1.678-1.476-1.624-2.32.041-.65-.567-.828-1.54-1.356-2.577.133-2.901.023-3.79.546-2.727 1.605-4.381.815-5.8 2.123-1.884 1.734-.506 2.314-1.324 4.63-.216.615-.157 1.929-.28 2.29-.747 2.174.082 2.934-.679 3.793-.44.497.172.379-.235 1.666-.907 2.873-.794 8.091-1.406 9.854a6.243 6.243 0 01-.226 1.757.808.808 0 00-.035.508c.35 1.13-.66 3.098-.354 4.578.188.91-1.814 10.194-1.85 10.357a3.283 3.283 0 00.976 3.475 2.756 2.756 0 011.629.496zm114.96-25.162c.62-.45 1.052-1.156 1.858-1.354a25.356 25.356 0 003.332-3.957c.805-1.437 1.946-1.466 1.919-2.679-.01-.448.14.445 1.572-2.79a3.624 3.624 0 00.566-2.024c-.107-.75.673-.89.685-2.172a10.28 10.28 0 01.087-2.14 12.965 12.965 0 00.01-2.491c.026-.7-2.23-2.827-2.748-3.45-5.845-2.273-3.652-.968-6.702-.945-2.673.02-2.722-1.07-4.33-.442-2.445.955-1.676 1.22-2.976 1.565-5.475 1.452-5.215 1.761-6.532 1.704-2.375-.102-3.631 1.09-3.885 2.633a7.666 7.666 0 00-.344 3.172 14.748 14.748 0 00-.49 3.138c.02.546-.334.792-.317 1.554.062 2.91-1.344 4.275-1.462 5.655-.06.698-.312.472-.594 2.042-.09.505-.56.912-.454 1.493a23.655 23.655 0 00-1.274 4.63 1.358 1.358 0 01-.122.336 25.133 25.133 0 01-1.032 3.05 11.535 11.535 0 01-.96 3.05c-.63 1.342-.234 2.101-1.161 3.35-1.293 1.741-1.05 3.628-2.556 6.413-1.822 3.37-1.427 3.245-1.609 3.932a3.833 3.833 0 01-.254.462c-.415.967-.093.85-.595 1.648-2.386 3.798-1.73 4.626-.976 6.836a6.907 6.907 0 011.31.432c.792.442 1.71.51 2.508.917.305.156.944-.157 1.22-.143 1.978.1 4.987-1.21 5.174-1.273a3.626 3.626 0 001.926-1.213c.36-.496 1.033-.434 1.09-1.53.031-.62.057-.513.818-2.317.53-1.256.756-1.112.728-1.966-.024-.712.34-.69.774-1.97.867-2.56 1.227-2.29 1.673-3.548.7-1.971 3.41-8.524 3.824-10.366.441-1.969 1.206-3.548 1.236-4.099a4.194 4.194 0 01.84-1.942c.168-.276.983.315 1.146.574.942 1.496.423 1.294.908 4.836.134.976-.481.955-.345 2.262.146 1.405.39 1.77-.052 2.418-.832 5.197-.775 5.4-1.26 6.834a2.046 2.046 0 00-.192.861c.11.794-.3 1.519-.235 2.302a1.257 1.257 0 01-.183.678c-.359.626-.176.821-.652 3.49-.1.557-.527.44-.778 1.575-.323 1.466-.627 1.122-.447 2.6a1.57 1.57 0 001.04 1.348c2.588.994 2.534.341 3.666.376.66.021.464.803 1.578.005 2.381-1.705 1.922-1.786 2.4-3.714a6.236 6.236 0 00.229-2.65c-.158-.866.547-1.355.287-2.254a5.087 5.087 0 00.426-2.784 14.132 14.132 0 00.449-3.18c.075-2.418.592-1.996.356-4.614-.372-4.118.063-5.584-.137-6.248a3.624 3.624 0 01.077-1.942c-.487-.537-.509-.535-.541-.877a2.546 2.546 0 00-.569-1.655c-.316-.33.108-.705-.732-1.77a.887.887 0 01-.085-.332c.193-.3.635-.444 1.87-1.34zm-5.868-6.283a3.021 3.021 0 01.486-1.862 1.005 1.005 0 00.183-.497c.04-.852.646-3.174 1.2-9.19.078-.83-.334-2.052.783-3.141.313-.305.586-.903 1.106-.768a12.592 12.592 0 002.654.266c2.1.561 2.853.031 3.222.717.345.64 1.67 2.444 1.207 4.332-.214.87-.93 5.073-2.232 6.489-.363.394-.382.986-.838 1.35-1.158.927-2.98 3.916-4.498 4.777-2.236 1.27-1.72 2.168-3.391 2.032a1.04 1.04 0 01-.73-.224c.688-3.106.864-3.358.848-4.28zM193.12 141.17c.561.086 1.04-.24 1.573-.284 2.878-.234 1.438-.285 3.47-.75 1.175-.27 1.778-.897 4.987-2.747a2.195 2.195 0 00.877-.86c3.104-5.672 1.79-4.708 2.264-5.742a10.721 10.721 0 001.016-4.665 10.508 10.508 0 00.16-2.121c-.11-1.06.171-.912.158-2.115-.014-1.146-.116-6.132-.35-7.3a76.515 76.515 0 00-.564-7.659c-.064-.455.23-.955-.17-1.368 0-.1-.006-2.225-.029-2.323a26.802 26.802 0 01-.118-4.43c-.208-.586-.213-.915-.185-5.158.547-.591-.242-1.167.074-1.875.417-.934.283-1.191.357-5.851a11.494 11.494 0 01.462-2.066c.028-.143.337-.18.442-.071a1.296 1.296 0 01.458.935c-.049 1.668.651 1.705.69 3.477.04 1.847 1.141 2.336.458 3.03-.159 1.727.762 1.727.561 3.474-.247 2.155.496 2.871.463 4.771-.086 4.948-.017 4.332-.255 4.956-.36.947-.261 2.015-.77 2.923a11.26 11.26 0 00.193 2.664.909.909 0 001.131.566c.773-.366 1.526-.743 1.465-1.797a4.032 4.032 0 00.668-2.178 23.968 23.968 0 00.164-6.582 6.462 6.462 0 01.002-2.136 3.14 3.14 0 00.032-1.42c-.402-1.565-.094-3.208-.533-4.775-.34-1.212.55-1.41-.17-3.164a3.34 3.34 0 01-.234-1.56c.077-1.121.201-1.555-.218-2.068-.757-.926.047-1.334-.446-2.005-.764-1.043.184-3.498-2.289-6.009-1.838-1.868-5.358-.547-7.378-.684-4.689-.319-4.96-1.188-7.739 4.688a2.167 2.167 0 00-.157.874c-.031 2.101-1.4 2.818-1.04 5.727.285 2.314-1.085 2.465-.577 4.517.256 1.032-.22.638-.156 3.728.148 7.165-.355 6.678-.02 7.67.242.712 0 .834.12 2.286.57 6.87.926 3.385.973 7.567a4.198 4.198 0 00.2 1.934c-.272.61.209 1.146.164 1.738-.217 2.884.319 8.743-.128 10.712.147 1.435-.505 2.351-1.097 5.742-1.854 1.601-1.467 1.5-2.642 1.043-1.046-.406-.622-1.038-1.19-2.064a1.58 1.58 0 01-.258-.655 17.735 17.735 0 00-.82-3.261 2.9 2.9 0 00-2.445.002 1.236 1.236 0 00-.098.372 3.006 3.006 0 00.141.87c.497 1.219-.826.434.75 5.355.128.402 1.393.854.982 2.7a1.962 1.962 0 00.023.523c1.807 2.064 1.444 2.11 6.598 2.899zm126.04-2.995a20.596 20.596 0 002.895-1.37c1.413-.698.885-1.022 1.973-1.742a.813.813 0 00.137-1.338.863.863 0 01-.248-.625c.033-3.067 2.277-9.938 2.31-12.07a11.91 11.91 0 00.478-2.808c-.025-.5.504-.985.604-1.459.148-.702-.298-2.643.9-2.747.471-.042.975.161 1.411-.087.974-.554 3.893-.705 5.49-2.413.122-.131 4.16-2.014 7.714-10.884a16.44 16.44 0 001.36-4.232 1.2 1.2 0 01.528-.878c.243-.184.104-.082.152-5.66a4.416 4.416 0 00-.693-2.546c-.444-.669.195-1.042-.285-1.282a1.213 1.213 0 01-.592-1.048 7.122 7.122 0 00-.695-2.008 5.426 5.426 0 00-3.334-3.258c-1.585-.555-1.595-1.16-2.765-1.137a9.442 9.442 0 00-3.194.188.515.515 0 01-.35-.002c-.949-.417-1.805.571-3.294.453-1.123-.09-1.148.866-3.915 2.005a13.58 13.58 0 00-3.281 2.11c-.94.496-1.9 1.86-2.912 3.112-.108.885-1.036 1.845-1.106 2.6-.11 1.197-.7 2.166-.767 2.929-.256 2.949-1.225 5.157-1.746 8.924a16.34 16.34 0 01-.344 2.279c-.333 1.179.072 2.424-.404 3.532a5.196 5.196 0 00-.39 2.274c.08 2.077-.603 2.92-.72 4.196a10.482 10.482 0 01-.442 1.902 18.151 18.151 0 01-1.033 4.125 9.703 9.703 0 00-.509 2.254 6.085 6.085 0 00-.576 2.592 13.99 13.99 0 01-.476 2.451c-.29.832-.396 3.842-.944 5.236a5.097 5.097 0 01-.533 2.78c-.385 1.021-.337 2.463.766 2.985.848.402.397 1.303 1.166 1.116.507-.123.992-.53 1.696-.09.679.424 4.016.258 5.967-.359zm18.345-52.687c.696 1.396.201 1.557.374 2.22a4.85 4.85 0 01.193 1.76 25.836 25.836 0 01.035 3.385c-.91 4.788.038.67-1.401 5.144-.377 1.17-.651 1.1-1.819 3.66a11.328 11.328 0 01-1.906 3.609c-.761.753-1.094 2.013-2.532 2.691a9.18 9.18 0 00-1.28.954c-1.122.803 1.793-14.307 1.806-15.258a37.573 37.573 0 001.673-9.09c.003-.417.006-.835.029-1.252.087-1.622 2.445-1.442 3.312-.736a4.436 4.436 0 00.518.31 27.744 27.744 0 00.998 2.603zm-205.244 5.584c-3.67-.223-2.519.738-5.45.707-2.224-.023-3.196.074-4.514.812a1.618 1.618 0 00-.756.734 5.344 5.344 0 00-.494.942 7.785 7.785 0 00-.387 2.09c.063.955-.396.6-.533 1.635a6.368 6.368 0 01-.65 2.213c-.393.735-.295 4.07-.66 5.479-.114.438.287.78.048 1.575-.894 2.978-.042 2.509-.91 4.516a3.775 3.775 0 00-.344 1.563c.02 1.18-.436 2.868-.3 3.891.236 1.786-.388 1.739-.348 3.163.13 4.594-.534 3.603-.67 5.062-.217 2.34.039 2.858-.722 3.985-.633.939-.326 1.653-.286 4.557.01.707-.176 1.43.334 2.065a.729.729 0 01.04.52c-.127.638.185.994 2.06 4.89a4.183 4.183 0 001.06 1.441c6.76 1.49 8.584 1.063 13.19-.928 2.646-1.142 2.296-2.506 3.337-4.712.788-1.67.559-2.379 1.101-3.166a2.775 2.775 0 00.497-.943c.18-.883.614-1.673.855-2.531.513-1.828.451-.699 1.184-2.762.777-2.187 1.026-1.971 1.343-3.48.22-1.046 1.13-2.245 1.6-4.718a2.565 2.565 0 01.437-1.151c.249-.325.048-.794.321-1.172a4.376 4.376 0 00.82-2.687c-.013-.663.391-1.263.217-1.937a.577.577 0 01.086-.342c.57-1.177.618-2.543 1.325-3.673a.634.634 0 00.099-.338c-.024-.596.8-2.511.772-3.645-.033-1.324.347-2.595.365-3.904a1.234 1.234 0 01.05-.352c.413-1.305.484-2.691.946-3.985a1.395 1.395 0 00-1.113-1.868 9.585 9.585 0 00-1.068.008 1.224 1.224 0 00-.854 1.796c.613 1.396-.294 3.257-.328 4.015a11.255 11.255 0 01.033 1.586 6.786 6.786 0 00-.544 2.594 2.233 2.233 0 01-.202.856 22.056 22.056 0 00-1.447 5.317c-.28.335-.889.528-.499 1.153.074 1.951-.645 1.153-.98 2.79-.244 1.195-1.2.883-1.06 2.153.031.292.08.583.122.877a15.551 15.551 0 01-1.034 1.867.475.475 0 00-.132.323c.103.8-1.016 1.515-1.186 3.509l-.084 1.013a12.005 12.005 0 00-2.011 3.623 4.322 4.322 0 00-.371 1.186c-.144 1.144-1.11 1.72-1.208 2.94-.067.837-1.327 1.834-1.328 2.482 0 1.3-1.623 3.294-2.087 2.391a4.293 4.293 0 01-.462-1.894c-.023-1.01-.126-2.015-.248-3.016a2.467 2.467 0 01.152-1.557 3.162 3.162 0 00.134-1.226 18.592 18.592 0 01.638-5.104 1.575 1.575 0 00.078-.527 10.088 10.088 0 01.321-2.65 26.9 26.9 0 00.353-2.834 5.63 5.63 0 01.095-.887c.462-1.857.488-3.78.879-5.648a.848.848 0 00.025-.354 2.56 2.56 0 01.367-2.214.267.267 0 00.041-.172 12.316 12.316 0 01.317-2.471 64.38 64.38 0 01.345-3.194 6.156 6.156 0 00-.008-1.245 11.892 11.892 0 01.208-2.992 5.877 5.877 0 00.282-2.114 4.72 4.72 0 01.735-2.716 1.101 1.101 0 00.205-.483 2.692 2.692 0 00-.557-2.302 8.07 8.07 0 00-1.582-.425zm150.623 11.807c-.168.483.132.919.115 1.381-.036.986.486 1.285 3.186 3.68a1.963 1.963 0 00.463.266c3.519 1.685 4.042 2.134 10.378 1.727a13.223 13.223 0 001.738-.385 22.478 22.478 0 004.172-.974 1.891 1.891 0 00.594-.387 18.352 18.352 0 004.034-5.385c.89-.953.765-2.243.967-2.636a4.19 4.19 0 00.595-2.033c.447-.752-.1-.33 1.689-6.387.673-2.28.018-2.366 1.306-8.998.499-2.571-.446-4.859.11-6.035.146-.307-.133-7.526.265-9.461a13.256 13.256 0 00.174-1.954 1.682 1.682 0 00-1.893-1.449c-1.433.163-1.62.822-2.29 2.017.719 1.01.923 1.187.957 1.67a24.4 24.4 0 01-.342 5.706c-.056.342-.312.654-.357.996-.039.295.234 4.303-.262 5.503-.452 1.093.689.72-.22 3.276-1.31 3.684-.074-.359-1.171 6.107a12.566 12.566 0 01-1.456 4.191c-.481.84.003 1.06-.366 1.317-1.06.737-.758 2.67-1.3 3.796.1.922-.468 1.038-1.138 2.138-.614 1.01.302 1.07-1.03 2.369a17.162 17.162 0 00-1.551 1.7.498.498 0 01-.65.019c-1.613-1.915-1.72-1.955-1.944-2.525-.086-.219-.067-.494-.19-.68-.698-1.054-.552-1.905-1.078-3.198-.77-1.895-.48-7.306-.508-7.61.386-1.254.013-4.523.544-6.928.072-.328.003-2.134.09-2.858.155-1.292-.08-1.607.025-3.746a27.46 27.46 0 01.445-3.363 13.83 13.83 0 00.016-1.944 3.615 3.615 0 00-.023-1.769 16.866 16.866 0 01.908-2.87 1.314 1.314 0 00-.798-1.45c-5.04-1.22-1.752 1.284-7.837-.287-3.092-.798-4.728 1.136-5.921 1.746a4.657 4.657 0 00-1.156 3.263c.07 1.003-.134 2.023-.091 3.03.077 1.816-.39 1.63-.347 2.798a6.96 6.96 0 01-.055 1.777 25.216 25.216 0 00-.076 3.025c.449 1.043-.11 2.236-.244 3.34-.088.727.76.814.05 1.6-.518.573.01 1.286-.022 1.869-.033.58-.523 1.041-.41 2.26a9.918 9.918 0 01-.064 1.954c-.098.937.317 2.138.132 3.018a9.926 9.926 0 00.02 2.313.93.93 0 00.562.853c.094.043.147.177.252.313-.256 4.058 1.172 3.808 1.003 4.294zM111.79 126.487c.545-.29.539-.37.491-4.288-.056-4.676-.643-2.781-.182-6.218a39.233 39.233 0 00.237-4.815c.33-3.216-.828-4.739-.725-6.347.142-2.21-1.177-1.833-1.173-3.824a2.772 2.772 0 00-.053-1.062 5.055 5.055 0 01-.203-1.76 16.053 16.053 0 01-.138-2.842 5.215 5.215 0 01-.161-1.227c.253-1.863-.7-6.422-.78-7.075a17.423 17.423 0 00-.452-1.7 5.81 5.81 0 00-.598-2.381.483.483 0 01-.062-.344c.155-.741-.523-1.332-.365-2.07-.805-2.429-2.819-1.53-4.873-1.165a4.163 4.163 0 01-3.546.626c-1.848-.727-5.169 1.126-5.419 3.672-.107 1.09-.516.955-.49 1.49.039.814-.99 2.779-.868 3.428.086.464-.363.72-.368 1.169a9.22 9.22 0 01-.674 3.127c-.487 1.301.135 1.012-.584 2.579-.732 1.596-.077 1.798-.363 2.22-.738 1.087-.016 2.24-.9 3.588a29.999 29.999 0 00-.925 2.876c-.506.3-.3.687-.108 1.124-.559.813-.396 1.943-1.08 2.759-.229.273.288.496-.302 1.526-.617 1.077-.153 2.603-1.107 3.498-.592.555-.687 4.435-1.237 6.275a3.538 3.538 0 001.35 3.535c2.024-.031 3.394 1.713 6.558.303 3.746-1.668 3.986-1.9 4.608-2.637.382-.454.93-.793 1.114-1.383a1.742 1.742 0 01.91-1.022.284.284 0 00-.025-.454c-.359-.16-1.206-.348-.785-.86.221-.27.557-.48.326-.915a.468.468 0 01-.037-.348c.47-1.16.144-2.536 1.164-4.451.537-1.009-.177-1.357.456-1.992 1.019-1.02-1.078-2.786 5.757-2.6 1.345.037.553 4.768.892 5.196.532.673-.119 1.878.286 3.504.185.743-.728 1.697.02 4.398a7.15 7.15 0 01.247 2.653 9.17 9.17 0 01-.281 2.648.384.384 0 00.152.474c.356.227.213.664.45 1.008a3.646 3.646 0 003.846.104zm-6.283-30.598c-.002.37.322 2.24.413 4.775.068 1.922.355 1.957-.808 2.275-.821.225-2.885.728-2.726-.121.012-.067.643-3.426.663-3.49.128-.395.544-.638.556-1.097a3.795 3.795 0 01.094-1.24c.682-1.737.286-3.559 1.22-3.476a5.805 5.805 0 01.588 2.374zm138.69-23.776a27.048 27.048 0 006.36-.843 2.306 2.306 0 001.334-1.129c.413-.86-.904-1.651-1.717-1.838a16.398 16.398 0 00-5.335.068c-1.817.478-4.2.735-4.535.955-.649.426-1.395.636-2.045 1.086a6.885 6.885 0 01-3.397 1.505c-2.456.608-3.532 1.233-5.027 1.183a10.58 10.58 0 00-4.556.714c-1.709.086-2.696 2.02-5.032 1.36-.073-.02-.521-.223-.665-.022-.845 1.179-2.807 1.293-1.861 2.936.173.3.462.532.408.945-.089.689 2.52.24 3.201.116 5.222-.945 3.054-.87 5.156-1.387.222-.055.533.165.498.367a10.222 10.222 0 000 2.318c.158 3.113-.376 2.733-.163 3.366a8.095 8.095 0 01.128 1.598 7.75 7.75 0 01-.16 2.842c-.222.939.269.884.036 1.751a5.738 5.738 0 00-.112.881c-1.046 9.795-.385 7.447-.626 9.757.184.707-.072 1.438.046 2.122.236 1.365.103 2.737.221 4.1.063.728-.24 2.277-.22 3.029.022.897.692 1.134 1.013 1.81.236.498 1.223-.154 1.871.78.28.405 1.138-.025 1.532.286a1.09 1.09 0 001.463.05c.581-.427 1.948-.046 3.265-.813a1.132 1.132 0 01.508-.147c.767-.029 1.206-.59 1.918-.906 1.744-.777 1.179-.44 2.236-2.127a1.404 1.404 0 00.256-.84c-.046-.784.887-2.693.15-4.561-.327-.829-.905-11.403.291-15.408a2.103 2.103 0 00-.002-.696c-.185-6.667.253-.986.167-9.09-.459-1.616.07-2.893.492-4.574a4.688 4.688 0 012.904-1.544zM129.152 190.971a.257.257 0 01.114.184c.025.399.4.624.47 1.019.092.526.75.854.807 1.334.053.457 1.378 1.952 1.271 3.278-.084 1.052-.419 1.13-.166 1.656.226.47.218.617.571.81 1.016.557.773 1.188.83 1.572 1.244 1.426 2.311-.819 3.976-1.102 1.337-.228 3.114-2.224 3.65-2.779.532-.548.42-.872.517-1.955l.83-.74c0-1.19-.09-.674.901-2.647.12-.238.548-.262.591-.474.08-.398.44-.723.3-1.182-.083-.273 1.322-2.665 1.675-3.682.27-.78-.028-.28 1.316-2.49.446-.733.6 10.12.225 12.58-.208 1.365.201.983.24 2.207.038 1.178-.29 2.327-.282 3.503a1.662 1.662 0 00-.063 1.003 1.155 1.155 0 01-.008.671c-.252.541.063.786.016 1.907-.093 2.208.294 2.96.078 4.979a.767.767 0 00.511.9c2.278.422 3.174-.576 3.102-1.6-.271-3.88-.358-27.787-.35-27.823a19.931 19.931 0 00-.246-2.704c-.246-.97.545-1.058.01-1.47a.702.702 0 01-.149-.285c-.128-.304.046-.59.063-.944-.448-.642-.444-.96-1.223-.874-1.698.188.138.418-5.02.765a4.121 4.121 0 00-3.509 3.094c-.073.407-.841 1.483-.81 1.843.06.697-.272.489-.493.908-1.513 2.873-.954 2.342-2.357 4.77a1.96 1.96 0 00-.452 1.24 2.232 2.232 0 00-.225.756c-.028.33-.441.5-.598.802-1.365 2.62-.719 2.003-1.566 3.11-.197.257-.817-1.007-.904-1.32-.211-.752-.596-.944-.737-1.24-.436-.917-3.983-7.853-4.793-8.534a1.106 1.106 0 00-1.257-.246c-1.292.592-1.49.551-2.002.79-.514.237-2.433-.215-2.93-.013a4.587 4.587 0 00-1.58.864 3.238 3.238 0 00-1.174 1.752c-.047.31-.433.166-.243 1.131a13.749 13.749 0 01.088 2.36 19.633 19.633 0 00-.12 2.933 35.577 35.577 0 00-.346 4.292 1.423 1.423 0 01-.1.548c-.314.682.183 1.287-.237 2.337a18.61 18.61 0 00-.128 2.26 16.898 16.898 0 00-.438 2.665 10.118 10.118 0 01-.498 2.999c-.204 1.493-.645 3.552-.607 3.918a9.518 9.518 0 01-.315 2.115c-.248.346-.114.658-.298 1.43-.336 1.405.265 1.681-.015 2.457-.478 1.32.05 1.639-.48 2.392-.053.334-.16.674.138.96.253.242.067.988 1.531 1.557.448-.108.81-.248 1.156.072.402.373.814-.327 1.398-.036.21.104.547-.075 2.853-1.542a3.71 3.71 0 001.78-2.625 3.332 3.332 0 01.142-1.454c-.015-1.01.569-4.353.612-6.194a4.005 4.005 0 01.261-2.108 3.637 3.637 0 00.067-1.001 2.76 2.76 0 00.239-1.103c.054-.45.123-.9.198-1.347a14.543 14.543 0 00.271-1.553 4.676 4.676 0 01.245-1.214 10.473 10.473 0 00.333-2.003 1.2 1.2 0 00.021-.564c-.237-.787.159-1.435.19-2.348a12.864 12.864 0 01.29-2.13c.158-.44-.014-.905.078-1.353a11.588 11.588 0 00.14-1.24c-.016-1.254.242-2.483.325-3.728a.139.139 0 01.154-.14c.132.004.24-.022.446.277a9.394 9.394 0 011.054 1.742c.1.247.313.296.472.436.044.206-.113.465.173.609zm205.666-4.462a7.681 7.681 0 01.682-.597c.283-.204.369-.564.672-.76a1.282 1.282 0 00.417-.525 28.972 28.972 0 011.808-2.861c.05-.08.246.016.263.082a4.813 4.813 0 01.334 1.652 12.747 12.747 0 01.21 3.257c-.037.442.181.577.207.983a46.55 46.55 0 01.295 6.104c-.142 1.472.276.608.204 3.148-.019.644.522 1.137.765 1.118.988-.08 1.62.787 2.72-.022.603-.444.566-1.274.51-2.102-.027-.407.114-.83-.28-1.153-.11-.09-.085-.41-.085-1.277-.485-1.09-.16-.666-.296-1.24a3.087 3.087 0 01-.078-1.01c.03-.334-.107-.669.041-1.01a.805.805 0 00-.027-.441c-.136-.62-.346-3.075-.345-3.27.053-5.365-.706-5.368-.736-8.572a1.463 1.463 0 00-.241-.624c-.416-.476.055-.826 1.036-2.052.138-.599.67-.886 1.034-1.306.405-.468.749-1.44 1.514-1.947a16.33 16.33 0 011.853-2.568 22.706 22.706 0 012.202-2.726 4.26 4.26 0 00.44-.356.866.866 0 00-.19-1.203c-1.318-.992-3.796.011-4.2 1.148-.538 1.516-2.62 3.17-3.8 5.46-.175.342-.554.507-.716.872-.298.67-.877.897-.945 1.249-.08.417-.306.324-1.268 1.38-.314.344-1.218 1.662-1.654 1.843-1.27 1.578-1.2 1.49-1.464 1.457-.265-.032.117-3.295.177-3.683.435-2.829-.234-1.953.422-6.296a15.673 15.673 0 00.193-2.26c.003-.533.216-1.03.26-1.555.02-.255.542-.344.295-1.017-.245-.665-.552-.668-1.593-1.05-1.352.36-1.086-.11-2.28.246a7.136 7.136 0 01-2.701.069 4.82 4.82 0 00-1.774.298c-.335.092-.458.375-.689.557-.458.361-.834.616-.837 1.267-.01 2.972-.396 2.284-.424 3.11-.088 2.565.001 2.94-.16 3.392a2.27 2.27 0 000 1.335 9.16 9.16 0 01-.113 2.697c-.168.517-.168 6.552-.669 7.531a.6.6 0 00-.035.33 22.829 22.829 0 01-.114 2.376c.009.348-.43.619-.233 1.063a.558.558 0 01.039.331c-.191.808-.198 1.65-.463 2.445-.236.711.07.615-.528 3.124-.185.773.211 1.522-.136 2.928a14.12 14.12 0 00-.199 1.908 11.804 11.804 0 00-.25 1.79 1.528 1.528 0 00.276 1.177c.537.868.85-.007 1.406.727a5.729 5.729 0 002.27.575c.155-.019.03.177.756.11a24.666 24.666 0 003.094-.99c.449.03.632-.287.882-.571a3.72 3.72 0 00.762-1.128c-.095-1.618.017-.851.121-1.544.157-1.033.487-7.547 1.016-9.445a8.218 8.218 0 00.2-1.774 1.332 1.332 0 01.147-.205zm56.632-8.306a.293.293 0 00.16-.15c.196-.42.912-.446 1.265-.914.408-.541.627-.242.885-.62.3-.439.907-.313 1.711-1.416a14.167 14.167 0 001.945-2.488 9.143 9.143 0 001.275-2.112c.154-.297.205-.637.49-.87.173-.142.167-.66.226-.739.509-.673.058-1.568.42-2.06a1.01 1.01 0 00.163-.753c-.327-2.851-.202-2.998-4.462-4.203-1.404-.397-3.511-.515-4.622.251-1.03.712-1.42.067-2.122.66-.799.673-1.828.4-2.405.902a6.166 6.166 0 01-2.575.062 3.765 3.765 0 00-4 1.198.656.656 0 00-.156.415c.01.99-.727 1.986-.845 2.681-.036.212-1.824 7.39-1.908 8.51-.077 1.01-.452.652-.412 1.844a.777.777 0 01-.083.548c-.204.253-.157.579-.277.852-.262.6-.063.798-.27 1.204-.27.53-.572.754-.396 1.239.127.351-.667 1.335-.557 1.795.242 1.006-.406 1.03-.372 1.583a14.475 14.475 0 00-.716 3.764 14.33 14.33 0 01-.645 3.542c-.39.772-.03.85-.19 1.42-.134.478.06.972-.116 1.454a1.422 1.422 0 00.06.668 5.556 5.556 0 001.605 1.708c.746.442 1.27-.127 1.821.38 3.75.514 4.22-.542 4.852-.549.522-.005.602-.31 1.77-1.985-.492-3.618.725-6.196.793-8.049a18.736 18.736 0 01.53-2.887c.073-.375.33-.233.339-.664a7.771 7.771 0 01.704-3.053c.19-.461.514-.38.345-.985-.044-.157.306-.35.707.074a11.51 11.51 0 011.473 1.714 2.771 2.771 0 00.52.728c.416.487.623 1.121 1.064 1.598a14.249 14.249 0 01.52 1.49c.126.694.325.573.43 1.274.338 2.275.859 1.667.792 2.907-.011.195-.318.543.056.956.936 1.036 1.086.622 1.639 1.343a.627.627 0 00.818.111 1.422 1.422 0 011.075-.535 3.47 3.47 0 001.274-.916c-.075-1.67-.02-1.002-.368-1.739a4.631 4.631 0 00-.799-1.862 5.823 5.823 0 01-.845-2.196 9.626 9.626 0 01-.72-1.538 3.606 3.606 0 00-.525-1.242 7.635 7.635 0 01-.926-1.13 4.483 4.483 0 01-.926-1.137c-.054-.123-.216-.207-.342-.286-.33-.207-.41-.48-.67-1.054.552-.163.964-.596 1.523-.743zm2.778-7.158c-1.733 1.82-.53 1.105-2.033 2.46-.55.494-1.86.836-2.618 1.921a1.222 1.222 0 01-.518.42c-.842.388.242.247-2.274.945-.31.086-.39-.19-.316-.401.586-1.652.403-3.251 1.197-4.807.232-.455.01-.544.173-1.086.043-.143.166-.275.17-.414.034-1.046.48-2.028.496-2.668.018-.752.805-.442.515-.902-.385-.61.506-1.048.631-1.27a2.595 2.595 0 011.498-.934.415.415 0 00.214-.066 5.586 5.586 0 011.946-.551 2.877 2.877 0 012.078.36c1.202.494.747 1.697.75 2.36a3.246 3.246 0 01-.385 1.518c-.87 1.696-.913 2.055-1.481 2.334zM244.17 192.579c-.533.272-1.028.1-1.667.28-1.042.297-.763.132-1.37 1.036-.13.195.038.776.492 1.019 2.65 1.415 3.087.496 3.765.893-.37 2.19-.972 2.594-1.052 3.684a6.67 6.67 0 01-1.166 2.896c-.067.21-.058.435-.239.608-.17.163-.146.606-.211.86-.155.6-.871.751-1.134 1.777-.04.156-.821.757-1.044.018a5.804 5.804 0 01-.295-.966 8.854 8.854 0 01-.242-1.89c.07-.716-.27-.71-.215-1.55.033-.489-.005-.974-.017-1.462-.097-4.082.103-2.445.115-5.648a40.703 40.703 0 011.476-8.41c-.05-.39.21-.618.453-.853-.224-.89-.214-.024 1.523-4.894.158-.443.69-1.044 1.305-2.106a2.526 2.526 0 01.887-.85c.51-.33.744-.154 1.569.13.954 1.67.23 2.713.579 3.552a.511.511 0 01-.08.532c-.864 1.14 1.184 2.15 1.976 1.379.74-.72.263-1.107.537-1.67.702-1.443-.152-4.98-.95-5.574a5.181 5.181 0 00-2.007-1.015 4.658 4.658 0 00-1.551-.284 1.333 1.333 0 01-.435-.102c-6.062-1.493-4.66-1.358-7.663.092a16.974 16.974 0 01-1.602 1.584c-.197.154-.283.443-.458.635-.201.221-.446.402-.67.603a9.57 9.57 0 00-.655 1.435.918.918 0 01-.36.795 6.397 6.397 0 00-1.105 2.199c-.08.404-.392.764-.314 1.194.092.513-.344.83-.407 1.275-.278 1.944.215 1.204-.594 2.095a4.24 4.24 0 01-.272 2.21c-.763.585-.132.249-.34 1.15-.505 2.178-.556 1.03-.402 4.698a.43.43 0 01-.021.221c-.492.827.003 5.926-.028 9.088-.014 1.485.525.756.426 3.338-.047 1.238.96 1.675 1.884 2.677a7.26 7.26 0 001.413 1.16c.609.079 1.16-.094 1.635.258a5.262 5.262 0 002.433-.32.951.951 0 01.539-.14c1.35.027.518-.23 2.185-.779 1.293-.426.185-.317 2.245-1.44a.816.816 0 00.472-.6c.07-.443.445-.791.387-1.28-.03-.25.869-.727 1.196-1.889a1.74 1.74 0 01.238-.378c.355-.582.396-1.3.8-1.863a8.65 8.65 0 01.705-2.368c.377-1.303.879-2.57 1.163-3.9.073-.34.443-.2.66-.308 1.244-.622 2.462.05 3.398-.979.368-.404.227-.718.103-1.43-4.292-1.498-7.23-.383-7.993-.423zm19.607 3.006c.255-.434-.194-.813-.111-1.322a20.76 20.76 0 01.183-2.598 1.637 1.637 0 00.01-.566c-.096-1.254.168-2.07.271-5.776.017-.6 1.115.06 1.048.94-.074.965.435.863.515 1.323 1.055 6.087-1.198 16.36-1.586 17.13-.514 1.02 1.302 1.763 2.307 1.448.357-.111.85.265 2.297-1.09.445-3.15 1.488-7.513 1.901-12.504.12-1.448-.153-1.173-.062-1.455.305-.944-.153-1.547.057-2.238.107-.353.065-.292-1.423-3.142.272-.996-.129-.41-.5-1.223-.322-.702-1.154-1.347-.581-1.723 1.813-1.19.295-.363 1.652-1.499 2.113-1.766 2.518-4.953 2.68-5.376.186-.276.028-.587.073-.884a11.215 11.215 0 00-.64-3.764c-1.328-2.112-1.44-1.2-2.19-1.686-.848-.549-1.816-.535-3.875-.601-1.193-.039-1.405.167-2.378.094-1.644-.124-1.809.646-3.053.734-.651.047-.635.635-1.753.674a6.39 6.39 0 00-.766.194c-.67.112-.873.497-1.275.696-.698.347-.86 1.441-.777 2.101a5.077 5.077 0 01-.118 2.132c-.108.482-.02.97-.107 1.453a12.526 12.526 0 00.062 1.472c-.013 1.644.35 2.437.207 2.919a10.576 10.576 0 00-.277 2.698c.187.597-.157 1.412-.108 2.584a8.508 8.508 0 01-.26 2.354c-.597 2.494-.214 5.766-.614 7.743a1.454 1.454 0 00.302 1.272c.352.409 1.515 1.322 1.876 1.154a8.314 8.314 0 011.565-.246.594.594 0 01.328.025c1.001.357 1.52-.265 3.485-1.073.32-.131.352-.476.565-.68a9.407 9.407 0 01.848-.604c.134-.419.037-.776.222-1.09zm2.647-14.753a2.401 2.401 0 01-1.14.714 1.914 1.914 0 01-.67.01c-.327-.022-.062-.723-.135-.926-.384-1.065.243-1.92.11-3.472a3.772 3.772 0 01-.064-.674 11.48 11.48 0 01.127-2.145c.135-.463-.293.349-.07-2.573.065-.856 1.165-1.013 1.765-.74 1.965.895 2.013.675 2.466 1.629a1.228 1.228 0 01.029.443l-.046.004c.692 5.196-1.188 6.344-2.372 7.73zm24.755 28.086c-.037-.296.2-.482.26-.735.061-.258-.107-.403.141-.752a.383.383 0 00-.09-.589c-.297-.206-.23-.423-.276-1.154a22.016 22.016 0 01-.233-3.16c.112-2.124-.746-6.655-.256-7.554.183-.336-.148-.577-.195-.962-.474-3.86.104-3.237-.117-4.17-.096-.407.048-.809-.064-1.226-.122-.45.04-1.72-.107-2.375-.276-1.226-.128-2.486-.344-3.714a.842.842 0 01-.007-.227 17.214 17.214 0 00-.053-2.153c-.045-1.783-1.261-3.116-2.035-4.206-1.031-1.45-2.415.532-4.096.44a11.29 11.29 0 00-2.707.116c-.667.352-1.961.865-1.885 1.592-.308.531-.199 1.199-.559 1.715a.36.36 0 00-.021.22 6.341 6.341 0 01-.367 1.99c-.581 1.04-.722 2.052-1.493 3.663a6.628 6.628 0 00-.333 1.305 3.206 3.206 0 00-.214.874c.016.928-.578 1.246-.643 2.261a15.487 15.487 0 00-.93 2.642 1.641 1.641 0 01-.3.952c-.242.266.167.06-.687 2.503-.656 1.876.193.05-.962 3.47-.03.916-.497 1.743-.543 2.659-.056 1.143-2.094 2.925-.59 3.998.24.17.588.614.761.664a3.572 3.572 0 01.9.466c.414.26.902-.127 1.326.107a4.103 4.103 0 003.263-.448 3.495 3.495 0 001.235-.785c.644-.547.971-.556 1.136-1.06.273-.836 1.03-.592.767-1.103a1.706 1.706 0 01-.25-.496 1.02 1.02 0 01.135-.765 4.124 4.124 0 00.308-.719 1.421 1.421 0 00.157-.757c-.004-.136.106-.274.153-.415 1.171-3.477.346-1.932 1.303-4.443a.739.739 0 01.434-.475c.199-.083.336-.352.531-.395a1.914 1.914 0 011.007-.075c.553.173.737-.168.99-.072.728.275.695-.217 1.618.388.456.298-.105.063.424 4.678a6.461 6.461 0 01.084 1.693c-.047.318.435 1.962.082 3.031-.037.111-.009 4.61-.006 4.635.03.327.328.353 1.472.665a2.611 2.611 0 001.847-.737 2.717 2.717 0 00.03-1.005zm-6.36-20.2a11.536 11.536 0 01.477-1.255c.162-.232.124-.509.2-.757a8.529 8.529 0 00.75-2.461c.05-.231.319-.015.309.059-.117.846.445 2.132.37 4.041-.024.63.26.89.21 1.44-.352 3.728 1.439 3.012-2.504 3.333-1.609-.089-.792.073.187-4.4zm-70.89-8.925c-.033.154.06.116-.223.628-.115.207.123.341.1.528a4.287 4.287 0 00-.011 2.132c.054.13.027.19-.34 1.997.092.627-.538 5.94-.673 7.98-.247 3.739-.405 2.825-.428 3.82-.075 3.337-.579 3.045-.64 7.88-.01.824-.09.367-.433 1.654.643 1.075.856 1.55 1.415 1.76.335.127.029.745.947.427a1.121 1.121 0 01.556-.045c3.002.463 3.115-.959 5.64-1.246.474-.054.364-.485.706-.495a4.465 4.465 0 001.28-.437c1.752-.585 3.941-1.15 3.608-2.345-.278-1-1.485-1.256-2.473-1-.704.183-1.42.162-2.146.285a1.667 1.667 0 01.005-.982 8.837 8.837 0 00.17-1.9c.616-3.864.422-7.979 1.181-10.229a14.005 14.005 0 012.875-.68c2.654-.08 2.127-2.37 1.18-2.42-1.873-.098-3.57.138-3.86.038a8.231 8.231 0 01-.02-1.554c.296-.959.04-2.334.24-2.697.136-1.239.276-2.478.402-3.718.043-.425-.216-.718.178-1.057.443-.382.009-.397.325-1.7.273-1.128.257-2.196.393-3.01a18.205 18.205 0 012.135-.367 4.993 4.993 0 01.981-.265 19.614 19.614 0 002.814-.828c.366-.077.975-.893.84-1.21-.56-1.32-1.972-.636-4.579-.086-2.918.615-1.679-.143-2.682-.18a1.738 1.738 0 00-.89.119c-.65.332-1-.596-1.468.27a12.586 12.586 0 01-1.68.029c-.467-.007-.621-.288-1.09-.205-4.667.828-3.087 3.624-3.54 4.764-.46 1.163-.118 1.61-.727 2.216a3.88 3.88 0 01-.068 2.13zm-31.856 29.17c1.424-.916 1.305-1.287 2.24-1.48 1.975-.41 5.208-3.259 6.131-4.47a25.625 25.625 0 011.74-2.222c1.291-1.318 1.34-2.796 2.197-4.291.38-.662 1.754-8.666 1.818-9.06.977-5.998-1.268-8.415-1.211-9.52.024-.484-1.05-1.118-1.744-2.04a4.28 4.28 0 00-3.04-.58c-3.18.56-3.258.47-6.438 3.425a6.964 6.964 0 00-.473.634c-.358.421-1.898 1.55-2.123 2.447-.035.138.028.302-.142.427-2.207.52-2.82-.146-4.35.895a1.377 1.377 0 00-.72.96c-.054.405-.606.629-.319 1.827a.728.728 0 01.014.44c-.157.435.041-.139.057 2.129a14.564 14.564 0 01.052 3.272 25.317 25.317 0 00.056 2.832c.051.453-.22.89-.043 1.342-.25.89.001 1.402-.138 1.905-.289 1.048-.432.452-.206 2.777.07.716-.06 1.436.055 2.153.037.23-.169.694-.12.77.343.533.022 1.115.13 1.664a3.013 3.013 0 00.058.56c.499 1.192-.468 2.344.729 3.278a5.732 5.732 0 001.39.886c1.385-.361 2.424.31 4.4-.96zm9.292-14.532c-.07.88-.659 1.177-.66 1.781 0 .237-.909 2.958-1.779 3.593-.448.328-.202.39-.996 1.213-1.005 1.042-1.246 1.98-2.932 2.563a.584.584 0 01-.335.013.598.598 0 01-.256-.193.358.358 0 01-.061-.213c-.15-7.27.025-12.527.011-16.569 0-.34-.188-.653-.135-1.006a2.98 2.98 0 00.065-.902c-.134-.799.115-1.58.06-2.37a.785.785 0 01.175-.528c.537-.722.411-1.223 1.309-2.1a12.726 12.726 0 012.576-1.84c.646-.482 2.159-.581 2.438-.095a9.934 9.934 0 011.275 2.13c.07.248.274.455.364.7.456 1.249.369 1.587.51 1.85.532.992.067 3.814-.153 4.917a7.607 7.607 0 01-.43 1.164c-.143.38-.095.83-.223 1.218a17.813 17.813 0 00-.387 2.115 1.767 1.767 0 00.062.545c-.44.364-.353.214-.498 2.014zm164.328-26.187a15.942 15.942 0 00-.819 2.582c-.03.259-.118-.249-.516 1.471a31.337 31.337 0 01-.666 2.393c-.34 1.073.006 1.315-.674 2.96-.195.472.208.93-.066 1.668-.547 1.474-.422 2.857-1.072 3.795a1.58 1.58 0 00-.32 1.172 1.83 1.83 0 00-.078.67c-.061.93-.572 1.551-.498 3.117a1.275 1.275 0 01-.063.665c-.24.4-.102 1.226-.3 1.539-.475.754.081 1.798-.607 2.955a1.794 1.794 0 00.017 1.529 8.645 8.645 0 001.566 1.46c.501.298.919-.349 1.611.168.673.502 1.285-.132 2.152.516.416.311.28-.488.958-.286.108.033.211.082.32.11a.33.33 0 00.348-.231c.024-.143-.02-.291.149-.38.424-.223.557-.048.753 0 .536.133.289-.467.768-.484a7.002 7.002 0 012.255-.083c.178.05 3.532-.282 3.606-.283a1.698 1.698 0 001.063-.326c.128-.097.008.04 1.1-.477a8.226 8.226 0 00.543-2.79c-.54-.6-1.198-.098-1.577-.06-.935.09-1.026.748-1.518.903-2.994.944-3.341.219-4.224.248-.1.003-.213-.144-.206-.228a1.925 1.925 0 01.017-.226 11.77 11.77 0 00.476-2.555 7.292 7.292 0 00.316-1.664c.349-.522.118-1.662.547-2.76.359-.917-.059-1.55.58-2.528a10.262 10.262 0 002.35.07c.328.015.092-.274 1.551-.596a1.63 1.63 0 001.136-.667 6.837 6.837 0 011.168-.673c.051-.03.065-.124.095-.188-.425-.106-.756.073-1.065-.445a1.314 1.314 0 00-1.263-.61c-1.065.045-1.491-.253-1.958.177-.379.35-1.294.477-1.276.113.17-3.458 2.186-10.22 2.21-11.284a3.25 3.25 0 01.45-1.261c.133-.293.931.02 2.428-.361 2.11-.538 1.939.137 4.804-.579.72-.809.841-.958.528-1.92-.446-.148-.871-.305-1.306-.43-1.304-.374-2.066.586-2.807.617-.791.032-1.56.28-2.36.245-.533-.024-.812.342-1.562.1-1.01-.328-1.509.11-3.678.35-.498.055-.949-.236-1.442-.278a1.738 1.738 0 01-.43-.14 3.076 3.076 0 00-3.142 1.308 7.924 7.924 0 01-.372 1.892zm-52.926 8.92c.013-3.586-.084-1.575-.198-4.869-.019-.563.411-.522.164-.939a2.233 2.233 0 01-.196-1.746c.086-.346.527-.368.65-.576.404-.684 1.37-.489 1.956-.7 1.16-.418 1.384-.057 1.662-.163a3.72 3.72 0 011.116-.121c1.3-.09 1.194-.439 3.346-.524a2.808 2.808 0 001.401-.373c.288-.706.667-1.003-.514-1.891-3.937-.224-4.353.544-7.044.854-1.649.19-.86.434-2.542.481-2.603.074-4.858 1.454-6.294.942-.392-.14-.643.249-1.022.394a3.46 3.46 0 00-1.768 3.189c.08 2.395-.286 2.466.102 2.87.266.275-.073 2.27-.043 2.342.327.773-.211 1.257.111 1.881.287.556-.393 10.634.71 13.924-.19.244-.385.445-.085.697a12.94 12.94 0 01-.045 4.27c.391.65.7 1.373 1.73 1.651.122.033.45.346.85.222.866-.27.369.173 2.92-.103a7.646 7.646 0 002.635-1.493c.528-.484 1.167-.595 1.115-1.427-.014-.211.265-.641.153-.98a8.573 8.573 0 01-.229-1.569c.203-.67-.193-1.34-.003-2.014.072-.257-.305-.19-.166-1.203.176-1.27-.801-6.691-.224-8.434.275-.828 1.063-.547 1.621-.721a7.124 7.124 0 011.888-.362 1.146 1.146 0 00.586-1.887c-.141-.22-.394-.194-.608-.251-1.166-.315-1.507.317-3.66.453a10.24 10.24 0 01-.075-1.824zm-129.946-.91a22.924 22.924 0 01-3.268.318 1.015 1.015 0 01-.83-.508c-.553-.897-.494-.837-1.544-.833a.904.904 0 00-.532.167c-1.473 1.038-1.378.666-2.987.758a4.394 4.394 0 00-2.768.873c-.64.275-.356.613-.6 1.12a9.8 9.8 0 00-1.26 3.367 9.498 9.498 0 00-.641 2.6 8.082 8.082 0 00-.406 2.428c.146 1.008-.465 1.432-.589 1.889a7.273 7.273 0 00-.124 1.011 6.47 6.47 0 00-.236.983c.013.627-.394 1.457-.439 2.792a7.65 7.65 0 01-.376 2.336 5.816 5.816 0 01-.368 1.652c-.21.442-.08 1.862-.216 2.242a4.787 4.787 0 00-.124 2.02c.08 1.098 1.313 2.566 2.61 2.242a12.727 12.727 0 012.265-.065c.91-.005.637.5 2.057.478a21.087 21.087 0 012.95-.005.924.924 0 00.533-.138c.878-.512 1.613-.123 2.877-.525.303-.096 1.697.258 2.559-.911a.57.57 0 00.094-.634c-.272-.495-.111-.728-.398-.746a5.268 5.268 0 01-1.339-.186 18.549 18.549 0 00-2.154.078 18.879 18.879 0 01-2.83.067c-.362 0-.57-.318-.453-.479.276-.376.565-.466.283-.698-.664-.547.271-2.36.218-3.354a1.398 1.398 0 01.091-.327 9.375 9.375 0 00.15-1.69 21.733 21.733 0 01.758-3.556 9.198 9.198 0 002.334-.31c.471.046.869-.278 1.321-.28a5.07 5.07 0 002.135-.69.913.913 0 00.327-1c-.27-1.054-.756-.996-1.408-.914a23.161 23.161 0 00-2.873.631c-.449.03-.905-.028-1.357.041-.044.007-.103-.082-.173-.143a17.593 17.593 0 01.455-2.542 7.199 7.199 0 01.26-1.89c.517-.749.061-1.447.356-1.853.602-.83-.057-1.47.894-2.995.117-.187.003-.464.29-.635a15.582 15.582 0 002.211-.067c2.488-.488 1.778.223 4.205-.758a.66.66 0 00.252-.885c-.131-.181-.256-.368-.396-.57a5.326 5.326 0 00-1.796.094zM313.9 197.162c.744.088 3.248-.741 3.778-1.556a2.705 2.705 0 001.43-2.518c.024-1.202.34-1.215.34-2.343 0-.97.69-2.5.562-4.018-.022-.263-.06.634.473-2.899a3.61 3.61 0 01.193-1.107c.152-.315-.273-.972.34-1.19a.494.494 0 00.179-.134c.24-.258-.327-.273-.222-.64.177-.618.185-1.27.395-1.882.096-.28.005-.61.181-.877.208-.317.017-.67.101-.997.202-.78.167-2.68.502-3.217.298-2.276.362-2.026-.374-3.081-1.614-.242-.828-.29-1.79-.069-.453.352-1.084.314-1.522.699-1.383.455-.803.349-3.13.522a4.865 4.865 0 00-2.649 4.18c-.047.257-.323.47-.252.724.092.332-.816 3.44-1.17 5.403a10.314 10.314 0 01-.246 2.01 5.05 5.05 0 01-.316 1.886c-.295.683.182.344-.073 1.894a14.12 14.12 0 00-.167 2.366 24.074 24.074 0 01-.777 3.88c-.563 1.427.51 1.996 1.631 2.857a23.602 23.602 0 012.583.107zm-114.531-12.544c.087 1.062-.144 2.112-.119 3.17.011.464-.346.998-.205 1.554-.265.666-.217 1.415-.547 2.067a1.12 1.12 0 00-.156.54c.055.767-.432 1.447-.34 2.22a.965.965 0 01-.114.434c-.298.734-.031.847-.24 1.434-.627 1.755-.169 2.46-.494 3.22a.81.81 0 00.002.447c.22 1.08-.578 1.539 1.22 2.47.52.27.566.767.784.69.246-.088.48-.207.724-.3.306-.115.588.11.89.08.073-.007.666-.109 1.009-.124 1.624-.07 3.006-1.815 3.74-1.71.381.055.72-.13.595-.55-.265-.89.486-.946.285-2.185a4.317 4.317 0 01.053-1.467c.147-.807.064-1.483.19-2.025.3-1.296-.006-1.355.194-2.013.398-1.31.547-3.09.788-3.404.157-.206-.001-.813.109-.993.199-.324.086-.661.127-.99.645-5.134.006-6.106.662-7.64.326-.76-1.866-1.913-2.957-1.257a3.723 3.723 0 00-.508.241 2.321 2.321 0 01-1.61.402c-1.13.01-1.705-.406-3.328 1.437-.872.99-.57 1.707-.756 4.006a1.137 1.137 0 00.002.246z" fill="#fff"/></svg>