<svg xmlns="http://www.w3.org/2000/svg" viewBox="0 0 300 128.95849"><path d="M151.17413,11.2081c.66051-.09942,1.22564-.17688,1.78787-.27158a1.66926,1.66926,0,0,1,1.20145.18841,3.65227,3.65227,0,0,0,.40671.22876,1.1686,1.1686,0,0,1,.61891.66164c.11115.26966-.017.48959-.07053.74014-.14061.65818-.21648,1.33-.32361,1.99557-.2224,1.38167-.44373,2.76355-.6745,4.14384-.15364.91894-.321,1.83561-.48557,2.7527a15.86294,15.86294,0,0,1-.67171,2.55557,7.02916,7.02916,0,0,0-.42767,1.6527,18.2402,18.2402,0,0,1-.78333,3.47814,6.37268,6.37268,0,0,0-.18317.75086,4.40782,4.40782,0,0,1-.52644,1.7745.81365.81365,0,0,0-.12153.44384,11.50119,11.50119,0,0,1-.43084,2.44461,17.39963,17.39963,0,0,1-.378,2.45318,1.31107,1.31107,0,0,0-.06879.45921,15.63039,15.63039,0,0,1-.74206,3.96039c-.27106,1.21076-.70617,2.38321-.92849,3.6095a1.997,1.997,0,0,1-.11854.45158,4.93076,4.93076,0,0,0-.421,2.11327,2.4263,2.4263,0,0,1-.16846.75447,19.52309,19.52309,0,0,0-.7842,2.99417c-.09364.6017-.379,1.17314-.46554,1.79614a6.23609,6.23609,0,0,1-.38349,1.64434c-.3397.77289-.20232,1.6504-.61188,2.39245-.18332,1.38788-.77,2.6775-.98714,4.05958-.055.3503-.30841.668-.37228,1.01863a17.565,17.565,0,0,1-.81935,2.979.63531.63531,0,0,0-.02755.15315c-.05869.55109.0978,1.14893-.35209,1.61476q-.1819.75374-.36386,1.50746c-.01219.0505-.01027.11333-.04026.14929a4.09906,4.09906,0,0,0-.607,2.51066c-.23421.30094-.46326.58232-.678.87419a2.7273,2.7273,0,0,1-1.35433.98614,20.673,20.673,0,0,0-2.28088.96177,2.34314,2.34314,0,0,1-.57337.23008c-.50905.0975-1.02333.17029-1.5375.23791a3.41859,3.41859,0,0,1-1.82845-.20856,4.34218,4.34218,0,0,0-2.10051-.49515,6.31747,6.31747,0,0,1-1.07313-1.88868,2.89841,2.89841,0,0,1,.0449-2.109,3.53973,3.53973,0,0,0,.23069-1.34738,4.54206,4.54206,0,0,1,.23723-1.52637,4.184,4.184,0,0,0,.14683-1.37605c.01251-.41267-.04593-.827-.04653-1.24071a1.77,1.77,0,0,0-.19991-1.05048c-.13817-1.02419-.28037-2.04788-.4101-3.07314a.9849.9849,0,0,1,.03933-.4623,21.67533,21.67533,0,0,0,.56658-3.04553c.09458-.40368.18928-.80734.295-1.25823a4.21159,4.21159,0,0,1-.415-1.91416,2.92682,2.92682,0,0,0-.25221-1.0517,5.11306,5.11306,0,0,1-.25135-1.21458c-.03737-.41251-.15446-.82128-.15814-1.23239a10.33182,10.33182,0,0,1,.13987-1.22857,2.72018,2.72018,0,0,0,.04016-.61959,24.77319,24.77319,0,0,1,.037-4.03238,6.99524,6.99524,0,0,0-.473-2.58814c-.069.03936-.17865.0636-.19576.11731-.31529.98917-.39074,2.02944-.638,3.03407-.13615.55308-.2504,1.11159-.372,1.66819-.08833.40424-.17318.80923-.25852,1.21411-.29792,1.41345-.42788,2.85315-.82574,4.25632a22.7461,22.7461,0,0,0-.69219,3.66467,3.31212,3.31212,0,0,0-.027,1.0648,1.78865,1.78865,0,0,1-.20426,1.20535,3.99938,3.99938,0,0,0-.4436,1.63553,7.237,7.237,0,0,1-.32133,1.671c-.43779,1.3882-.60014,2.83288-.92859,4.24269a19.573,19.573,0,0,1-.49864,2.11709,6.774,6.774,0,0,0-.52278,2.88684c.18176.766-.4047,1.36773-.45259,2.08843-.00893.13449-.14955.26521-.242.3882-.248.32987-.52029.6429-.74868.98547a.9363.9363,0,0,1-.59833.45731,1.9795,1.9795,0,0,0-1.0926.54743,1.0748,1.0748,0,0,1-.40747.218c-.7361.24952-1.47164.50246-2.21624.7245a2.05587,2.05587,0,0,1-1.21875-.03967,27.78655,27.78655,0,0,0-2.716-.67119,4.08428,4.08428,0,0,0-1.06346.06845l-1.30858-1.83142a4.24141,4.24141,0,0,1,.23494-1.748,11.44861,11.44861,0,0,0,.44833-1.97032,4.67417,4.67417,0,0,1,.3326-1.34391,6.54618,6.54618,0,0,0,.50272-1.94442,13.54875,13.54875,0,0,0,.41744-1.81254,3.32927,3.32927,0,0,1,.29136-1.0365,11.7135,11.7135,0,0,0,.52217-2.5906A20.1655,20.1655,0,0,1,115.677,56.432a18.60535,18.60535,0,0,1,.36635-1.97456,19.875,19.875,0,0,0,.38028-2.931c-.01568-.62823.41633-1.17695.347-1.81918a7.6358,7.6358,0,0,0,.57408-2.86146,3.44212,3.44212,0,0,1,.36393-1.34609,2.3394,2.3394,0,0,0,.26166-1.34978,1.25745,1.25745,0,0,1,.09948-.75622,5.10144,5.10144,0,0,0,.441-1.64139c.12387-.607.28131-1.2071.42523-1.81a.332.332,0,0,1,.05093-.14514,6.39069,6.39069,0,0,0,.93862-2.439c.14317-.38893.27879-.78314.45769-1.15583a2.47476,2.47476,0,0,0,.22955-1.82951,10.98063,10.98063,0,0,0,.74132-.99178c.18346-.30867.26875-.67405.43237-.99665a7.32991,7.32991,0,0,1,.49772-.78671A19.14068,19.14068,0,0,1,124.9048,28.741a2.907,2.907,0,0,1,.51815-.34212,22.76553,22.76553,0,0,1,4.42694-1.8816,2.49183,2.49183,0,0,1,.30419-.06565,1.96682,1.96682,0,0,1,1.875.49126c.3428.32258.70417.63793.56657,1.19656a.45778.45778,0,0,0,.05091.30258,5.80965,5.80965,0,0,1,.46206,2.58218c.04135.621.03877,1.24482.06829,1.86679a1.8583,1.8583,0,0,0,.09666.60879,4.382,4.382,0,0,1,.2137,1.84435,24.04273,24.04273,0,0,0,.18133,2.793c.03527.412.06341.82455.09118,1.23709.00694.10312-.0017.2072-.00056.3108.00452.41569.31212.76041.23927,1.20892-.06554.40356-.00122.82663-.04561,1.23551-.19605,1.806-.065,3.61866-.12932,5.42709-.01843.5184.00619,1.0382-.0033,1.5571a3.9024,3.9024,0,0,0,.177,1.22636,33.26468,33.26468,0,0,1,.82786,3.4589c.01534.07984.11862.14936.19243.20969.08769.07168.30943-.054.36659-.19909a1.30614,1.30614,0,0,0,.063-.14232,13.76368,13.76368,0,0,0,.518-2.10149,12.835,12.835,0,0,1,.866-3.36226,2.024,2.024,0,0,1-.15109-.64205c.05772-.40926.189-.80765.27941-1.21289a47.51311,47.51311,0,0,1,1.11409-4.66432,1.8633,1.8633,0,0,0,.11876-.764,4.64458,4.64458,0,0,1,.24725-1.82382c.05651-.19764.08424-.4037.12223-.60645.18154-.9688.3264-1.94621.55252-2.90445.24944-1.057.39409-2.13515.66794-3.1848.19583-.75063.44965-1.486.67166-2.23a4.2614,4.2614,0,0,0,.22863-.894,3.22383,3.22383,0,0,1,.36341-1.33818,3.20166,3.20166,0,0,0,.23949-.73081,8.63923,8.63923,0,0,1,1.13994-2.86418c.30933-.44871.26045-.99506.47294-1.47007.18973-.42409.56416-.74083.64208-1.23006a15.51675,15.51675,0,0,1,1.6328-3.8372,1.65958,1.65958,0,0,1,.88388-.847,2.095,2.095,0,0,0,.8844-.83806,23.02316,23.02316,0,0,0,1.84034-2.87339,1.85135,1.85135,0,0,1,.487-.58953C149.87507,12.17223,150.50393,11.71464,151.17413,11.2081ZM35.12672,122.49043c.34878.64748.34375.64846.97789.97215a.66454.66454,0,0,1,.23262.1949.83562.83562,0,0,0,.62888.40352,2.56242,2.56242,0,0,1,1.02764.34037,1.16565,1.16565,0,0,0,.75321.09509,5.22793,5.22793,0,0,1,1.23648-.102c.92018.09407,1.68323-.513,2.57451-.51515a1.632,1.632,0,0,0,.45069-.10735,1.39024,1.39024,0,0,0,.28536-.12324c.44984-.2584.88939-.53573,1.34684-.77963a6.82993,6.82993,0,0,0,1.37566-1.25255.58553.58553,0,0,0,.14946-.26644,3.21188,3.21188,0,0,0,.24536-1.81734,2.11031,2.11031,0,0,1-.02738-.76829,10.27414,10.27414,0,0,1,.18065-1.38874,13.97509,13.97509,0,0,0,.32671-3.3738,5.49788,5.49788,0,0,1,.07863-.92836c.13457-.87111.29176-1.73875.42407-2.61017a6.48836,6.48836,0,0,0,.03293-.77528c.03281-1.08919-.00285-2.18583.11577-3.26554a30.44357,30.44357,0,0,0,.2478-3.25715c.001-.41365.03747-.8281.07966-1.23994a.275.275,0,0,1,.19488-.17738.29769.29769,0,0,1,.25182.11546,2.83348,2.83348,0,0,0,.78814,1.13967.80736.80736,0,0,1,.24857.3848,2.31809,2.31809,0,0,0,.71578.9961,5.45617,5.45617,0,0,0,.96139.78111,6.13373,6.13373,0,0,1,2.23607,2.10133,8.11533,8.11533,0,0,0,1.43471,1.6119,1.37443,1.37443,0,0,1,.50324,1.09764c.00813.30492.16637.62035-.03265.90722a1.846,1.846,0,0,0-.2491,1.19229,1.12413,1.12413,0,0,1-.11224.59868,3.50394,3.50394,0,0,0-.35236,1.34368,16.64328,16.64328,0,0,0-.08454,3.26169,1.97592,1.97592,0,0,1-.00168.61463,34.43247,34.43247,0,0,0-.58766,3.83763c-.06682.35566-.1971.68908-.255,1.03511a6.95982,6.95982,0,0,0,.02159,1.0859c-.00131.259-.05019.51735-.05914.77664-.03226.93513-.31266,1.84078-.34923,2.77074a16.01241,16.01241,0,0,1-.48525,2.90154c-.07987.35338-.14617.70176-.19926,1.06015a12.20471,12.20471,0,0,1-.61166,3.01614,4.37891,4.37891,0,0,0-.03444,2.8952,1.42173,1.42173,0,0,0,.60763.87031,11.4723,11.4723,0,0,0,.97413.76255,4.21625,4.21625,0,0,0,1.32521.40708,8.28573,8.28573,0,0,0,2.94269.05054,11.13984,11.13984,0,0,0,3.25829-.96715,4.56746,4.56746,0,0,0,1.53457-1.26532c.24149-.33678.50468-.658.75812-.98621.08092-.66125.45741-1.24922.47727-1.92567a7.794,7.794,0,0,1,.07791-1.7037c.14405-.55311.212-1.11518.34805-1.6582.12619-.50353.20634-.99838.28816-1.50643.08116-.50386.17909-1.014.27877-1.51957.01965-.0996.08763-.20915.06385-.29482-.25036-.90162.298-1.729.23213-2.6109a3.327,3.327,0,0,0,.27893-1.50913c.08166-.56221.23921-1.11607.2859-1.68a7.91992,7.91992,0,0,0,.19681-1.998,1.7054,1.7054,0,0,1,.16663-.75268c.11672-.34186.26593-.67263.401-1.00766a1.07036,1.07036,0,0,1-.32437-.98728c.10614-.39712.25589-.78413.33911-1.18541.08211-.396.03606-.80134.13891-1.21154.20111-.802.27389-1.63521.42636-2.45053a9.61222,9.61222,0,0,0,.28368-2.61721.61526.61526,0,0,1,.04636-.30424,3.70081,3.70081,0,0,0,.19339-1.37879,3.09614,3.09614,0,0,1,.11176-.76669,3.76056,3.76056,0,0,0,.2072-1.37889,3.49825,3.49825,0,0,1,.355-1.18222c.13884-.45124-.12662-.945.09935-1.38083a2.25246,2.25246,0,0,0,.17539-1.06061,6.04463,6.04463,0,0,1,.05018-1.08659,22.33526,22.33526,0,0,0,.25758-3.72116c.035-1.08641.16992-2.16964.26321-3.254a.75123.75123,0,0,1,.05828-.30411,4.35637,4.35637,0,0,0,.3565-1.97468,4.29909,4.29909,0,0,1,.36713-1.65455,2.52927,2.52927,0,0,0,.19362-1.36513,1.26577,1.26577,0,0,0-1.196-1.2136,4.33023,4.33023,0,0,0-.93114-.0016,2.42763,2.42763,0,0,1-1.37855-.25409c-.1711.074-.35657.16227-.54779.23552a5.52436,5.52436,0,0,1-2.11751.43043c-.72665-.01643-1.45432.01915-2.18138.01281a4.69222,4.69222,0,0,0-1.681.28192,1.72322,1.72322,0,0,0-.86123.63327c-.26343.37989-.5611.736-.86352,1.12781,0,.568.00206,1.13576-.00077,1.70346a7.25425,7.25425,0,0,1-.36512,1.96869,2.53019,2.53019,0,0,0-.37111,1.32619q-.12327,1.15931-.27876,2.31506a4.79486,4.79486,0,0,1-.19444.911,9.25016,9.25016,0,0,0-.437,2.75241,3.19487,3.19487,0,0,1-.16429,1.06077,10.516,10.516,0,0,0-.16736,1.21151,4.75315,4.75315,0,0,1-.3877.85679,1.48382,1.48382,0,0,1-.47179-.07773c-.8987-.51154-1.78738-1.04067-2.67922-1.56426-.2876-.48535-.9-.69778-1.06857-1.29011a5.23672,5.23672,0,0,0-.27471-.55453A1.40481,1.40481,0,0,0,50.395,99.78a2.64544,2.64544,0,0,1-1.45163-1.05124,3.30367,3.30367,0,0,0-.81909-.64939c0-.3062-.01658-.56514.00272-.82138.11305-1.50083.26934-2.99744.34513-4.5023.073-1.44972.23588-2.89343.28342-4.34757.05083-1.55423.15788-3.11063.33512-4.65519.10089-.87911.15138-1.75868.20813-2.63811s.04483-1.7633.06053-2.64527a11.947,11.947,0,0,0-.04883-1.54688,5.03184,5.03184,0,0,1,.13064-1.84567,5.26528,5.26528,0,0,0,.15944-1.53374,7.15275,7.15275,0,0,1,.22764-2.46434,2.57791,2.57791,0,0,0-.187-1.85529,12.20521,12.20521,0,0,0-4.27946.28851,9.03756,9.03756,0,0,1-3.37046.3895,3.0706,3.0706,0,0,0-1.94626.43424A3.61188,3.61188,0,0,0,38.197,73.23395a20.18539,20.18539,0,0,1-.55085,3.51963,1.37621,1.37621,0,0,1,.34792.8427,4.13415,4.13415,0,0,1-.02019.62194,13.6952,13.6952,0,0,0-.13763,2.79264c.00091.31128-.04675.62355-.03356.93373.01656.38955-.32067.67276-.316,1.022a7.02036,7.02036,0,0,0,.24047,1.04639,2.46349,2.46349,0,0,1-.01561.6206c-.03079.362-.09352.72215-.10728,1.08443a38.90744,38.90744,0,0,1-.24824,4.49683,1.43157,1.43157,0,0,0-.01414.46587,5.74042,5.74042,0,0,1-.07085,1.70416,11.54738,11.54738,0,0,1-.32037,1.67222,8.69374,8.69374,0,0,0-.13626,1.69974c-.02455.41429-.02262.8307-.06052,1.24359a44.74669,44.74669,0,0,0-.22056,4.96886,9.24867,9.24867,0,0,1-.14643,1.70193,9.8212,9.8212,0,0,0-.24125,3.3948,3.87122,3.87122,0,0,1-.03574.92952c-.054.77648-.129,1.55185-.16551,2.32907a5.44989,5.44989,0,0,1-.26938,1.68367,1.8081,1.8081,0,0,0-.03076,1.04886,2.87817,2.87817,0,0,1-.1466,1.68412,3.73057,3.73057,0,0,0-.20739,1.21911,12.91416,12.91416,0,0,1-.12807,1.39487,7.45948,7.45948,0,0,0-.17327,2.16457.67784.67784,0,0,1-.24066.548.78529.78529,0,0,0-.22278.56258c-.00109.2592-.00026.5184-.00026.83068C34.70852,121.77305,34.92992,122.12511,35.12672,122.49043Zm79.13817-110.133a1.30841,1.30841,0,0,0-.63925-1.327,2.42286,2.42286,0,0,0-1.4354-.50966,3.34159,3.34159,0,0,0-2.41317.88461,4.905,4.905,0,0,1-1.15918.77329,9.13221,9.13221,0,0,1-1.97333.89569,3.90305,3.90305,0,0,0-1.98055,1.44009,1.09536,1.09536,0,0,0-.27219.71032.5692.5692,0,0,1-.26233.535c-.45821.18873-.50585.618-.69105.97988-.47921.93626-.472,2.00966-.86144,2.97069-.05216.12871.01387.30336.01681.4569a1.12391,1.12391,0,0,1-.0155.46108,5.12455,5.12455,0,0,0-.22562,2.1482,33.51978,33.51978,0,0,1-.1685,4.03754,7.36245,7.36245,0,0,0-.09676,1.70069,2.36992,2.36992,0,0,1-.20048,1.05028,6.47055,6.47055,0,0,0-.4514,2.10433,2.5745,2.5745,0,0,1-.40456,1.62706.8693.8693,0,0,0-.095.43973,3.01563,3.01563,0,0,1-.39588,1.48517.41982.41982,0,0,0-.06307.2969c.14477.56145-.23419.99338-.35685,1.48655a8.47951,8.47951,0,0,1-.36748,1.02012c-.16239.41559.12272.80766.04663,1.22483-.06478.35516-.03138.72873-.10132,1.0823A3.13987,3.13987,0,0,0,99.68916,41.71a.46822.46822,0,0,1-.05013.29959.42148.42148,0,0,1-.21042.179c-.1107.04228-.18729-.02994-.21872-.15647q-.46834-1.88533-.9378-3.77042a.49259.49259,0,0,1-.01305-.1546c.04653-.58732-.38457-1.05543-.40033-1.63558a2.05986,2.05986,0,0,0-.23428-.73839c-.14789-.33072-.36086-.63462-.48749-.972-.14342-.382-.15064-.79722-.33794-1.184a8.48507,8.48507,0,0,1-.68236-2.38346,1.56046,1.56046,0,0,0-.13562-.60094,8.08719,8.08719,0,0,1-.73385-2.03595,5.58287,5.58287,0,0,1-.34653-1.18756c-.04978-.4569-.24236-.88778-.3205-1.35191a20.7548,20.7548,0,0,1-.346-3.39592,4.20194,4.20194,0,0,0-.3982-1.94747c-.32369-.63973-.4719-1.35867-.79306-2.01595a5.14815,5.14815,0,0,1-.34053-1.51226,5.21581,5.21581,0,0,0-.46319-1.47778,3.01772,3.01772,0,0,0-1.39206-1.41647,1.34806,1.34806,0,0,0-.896-.179,7.33093,7.33093,0,0,0-2.66346.80639,2.53626,2.53626,0,0,1-1.34141.34243,11.25838,11.25838,0,0,1-2.1762-.02945,1.84745,1.84745,0,0,0-1.22379.10908,8.07574,8.07574,0,0,0-1.94441,1.276,2.34691,2.34691,0,0,0-.71493,1.66565c.00618.51837-.02544,1.038.00022,1.555a2.008,2.008,0,0,1-.13.91179,5.49317,5.49317,0,0,0-.419,2.1252,15.59631,15.59631,0,0,1-.28549,2.93946,4.25692,4.25692,0,0,0-.06925.77518c-.01626,1.29564-.13413,2.58884-.05922,3.88728a4.50482,4.50482,0,0,1-.13519,1.84943,2.59081,2.59081,0,0,0-.04864.77139c-.01564.46648-.00543.935-.046,1.39915-.045.51524-.17989,1.02548-.19242,1.53992-.01251.51369.10395,1.02933.11506,1.54516.00888.41261-.055.82682-.0875,1.24025a2.68666,2.68666,0,0,0-.0436.61013,8.32134,8.32134,0,0,1-.07527,1.86054,12.65264,12.65264,0,0,1-.22326,1.84377,12.77512,12.77512,0,0,0,.062,1.8551,15.08009,15.08009,0,0,0,.01557,2.01737,1.88037,1.88037,0,0,1-.07172.76688,2.88369,2.88369,0,0,0-.12741,1.22522,7.76423,7.76423,0,0,1-.07348,2.0126,4.09909,4.09909,0,0,0,.15257,2.00349,2.93344,2.93344,0,0,0,.81074,1.27749,2.4575,2.4575,0,0,0,1.41173.5698c.15449.014.3117-.005.46706.00294a1.76117,1.76117,0,0,1,.61412.05951,5.58874,5.58874,0,0,0,2.14933.21609,2.82987,2.82987,0,0,0,1.77032-.47618,4.437,4.437,0,0,1,.94806-.52721,5.58258,5.58258,0,0,0,2.31637-1.50245,3.65389,3.65389,0,0,1,.49378-.37687,1.81573,1.81573,0,0,0,.65183-1.03415,6.21174,6.21174,0,0,0,.14487-1.69947,33.63075,33.63075,0,0,1,.18709-6.05826,4.70577,4.70577,0,0,0-.00533-1.24168,16.46572,16.46572,0,0,1,.18592-3.7177,3.81517,3.81517,0,0,0,.07659-1.37477,1.91925,1.91925,0,0,1,.00774-.61382,46.78317,46.78317,0,0,0,.15574-5.28857,8.79364,8.79364,0,0,1,.07012-1.082c.04695-.46368.115-.92518.16766-1.38834s.09625-.92714.14656-1.39048a.18.18,0,0,1,.21626-.1698c.09635.00965.251.024.274.07994a6.07507,6.07507,0,0,1,.29138.87933c.08491.34958.15023.70149.2457,1.05106.20425.74782.44148,1.4791.70016,2.20938a20.61221,20.61221,0,0,1,.56247,2.08871c.16845.70313.563,1.32571.70051,2.03865a1.33052,1.33052,0,0,0,.174.58867,2.34487,2.34487,0,0,1,.44186,1.465,9.97837,9.97837,0,0,0,.49052,2.25922,2.238,2.238,0,0,1,.13878.43936,12.2018,12.2018,0,0,0,.06686,1.24086c.08359.45077.28389.87866.39294,1.32636a8.5062,8.5062,0,0,1,.15784,1.07513c.04582.41267.05722.82968.1153,1.24031a2.76641,2.76641,0,0,0,.21943.89618,5.4193,5.4193,0,0,1,.52391,1.93325c.15381,1.28607.34415,2.573.39488,3.86438a5.66573,5.66573,0,0,0,.50036,2.55929.96271.96271,0,0,1,.07325.7485,5.01685,5.01685,0,0,0-.18611,1.98675,2.92421,2.92421,0,0,1-.30769,1.4871,2.722,2.722,0,0,0-.341,1.18379c-.07327.8775-.0676,1.76135-.10626,2.64207a1.34235,1.34235,0,0,0,.46732,1.11251c.542.4565.90012,1.15,1.689,1.31152.15714.03218.27794.28243.39866.44465a1.80062,1.80062,0,0,0,1.70258.85263c.25778-.0274.51152-.0919.76918-.12143a1.60473,1.60473,0,0,0,.94673-.49723c.18481-.18075.33355-.39814.51623-.58139a1.349,1.349,0,0,1,.47988-.38239c.70323-.21149,1.22193-.78518,1.95046-.95038a2.14024,2.14024,0,0,0,.66646-.38258c.299-.2053.57788-.44007.877-.64521a3.082,3.082,0,0,0,1.41555-2.62485,9.5485,9.5485,0,0,1,.305-2.46189,6.365,6.365,0,0,0,.3186-2.28593,4.78188,4.78188,0,0,1,.062-.93144c.08565-.72119.17546-1.44213.28244-2.16037a2.12284,2.12284,0,0,1,.194-.58045,4.49413,4.49413,0,0,0,.44955-1.94926,6.662,6.662,0,0,1,.15358-1.06837c.13236-.81583.3729-1.60831.44849-2.43873.084-.923.28318-1.83543.4279-2.75315a6.01706,6.01706,0,0,0,.06725-.61807c.05479-1.0353.10039-2.0711.15765-3.10626a4.445,4.445,0,0,1,.09514-.771,19.25229,19.25229,0,0,0,.45327-3.2307,8.50241,8.50241,0,0,1,.39287-2.13638,3.12365,3.12365,0,0,0,.21294-1.05662,8.56949,8.56949,0,0,1,.36643-2.4526,5.15612,5.15612,0,0,0,.25-1.058c.06445-1.24165.29272-2.46536.37584-3.70309.06256-.93186.08667-1.86691.10378-2.801a7.14125,7.14125,0,0,1,.26269-2.00081,3.28717,3.28717,0,0,0,.101-1.22886,6.75739,6.75739,0,0,1,.09531-2.16758,3.265,3.265,0,0,0,.03764-.77529c.00448-.57043.0014-1.14092.0014-1.71139C114.23444,13.80879,114.14764,13.08468,114.26489,12.35747Zm18.42756,109.54325a5.522,5.522,0,0,1,.69525.33244c.61781.28661,1.324.194,1.95083.448a.22311.22311,0,0,0,.15226-.02022,4.71094,4.71094,0,0,1,1.535-.192,2.15855,2.15855,0,0,0,.60829-.11882c1.0992-.45115,2.23522-.81306,3.30177-1.34149a1.74809,1.74809,0,0,0,.61339-.46433,3.21785,3.21785,0,0,0,1.017-2.3528,3.01331,3.01331,0,0,1,.13075-.91978c.15731-.759.23854-1.52965.40145-2.29.19458-.90821.20719-1.85476.39067-2.76618a23.899,23.899,0,0,0,.38541-2.7533,8.825,8.825,0,0,1,.17085-.916,2.6934,2.6934,0,0,0,.10836-.6099c-.05161-1.04872.45163-2.0227.39807-3.06905.37719-.65777.13749-1.42222.37026-2.11625a1.75915,1.75915,0,0,0-.05453-1.21883,1.3262,1.3262,0,0,1,.04076-1.05039.13868.13868,0,0,1,.126-.042c.23208.17767.19676.4696.23769.70339a12.06865,12.06865,0,0,0,.38,2.286,2.70115,2.70115,0,0,1,.03717.92718,2.62325,2.62325,0,0,0-.0217.76777c.1667.51179-.12775,1.04153.10174,1.53211.244.52163-.04932,1.01769-.05855,1.52749-.0235,1.29578-.08476,2.58585.01049,3.886a16.50376,16.50376,0,0,1,.02967,3.10544,2.64484,2.64484,0,0,0,.08132.92091,4.67361,4.67361,0,0,1-.07432,2.60916,1.24771,1.24771,0,0,0-.0215.7626,5.43357,5.43357,0,0,1,.09845,2.75644,29.14353,29.14353,0,0,1-.78776,3.94814c-.29593,1.043-.467,2.1187-.83061,3.14579a.96972.96972,0,0,0,.04409.60323,11.30839,11.30839,0,0,1,.67715,1.73583,8.85751,8.85751,0,0,0,1.0672,2.40411,2.00473,2.00473,0,0,0,2.23228,1.05332,8.4804,8.4804,0,0,1,1.85181-.1721,6.84216,6.84216,0,0,0,2.278-.44135,8.763,8.763,0,0,0,2.34426-1.19306c.42451-.30806.89783-.54374.85348-1.18283a.44206.44206,0,0,1,.10709-.28316,3.091,3.091,0,0,0,.62863-2.03865,7.57313,7.57313,0,0,1,.80285-3.27909.76959.76959,0,0,0,.11223-.43306,2.67178,2.67178,0,0,1,.16263-1.0673c.14427-.65939.09755-1.3409.28718-1.99966.07721-.26821-.08638-.60022-.11381-.9056a2.43273,2.43273,0,0,1,.14021-.91267,16.75178,16.75178,0,0,0,.79459-3.30095,4.83451,4.83451,0,0,1,.19757-.7487,6.78949,6.78949,0,0,0,.25081-1.05861c.0991-1.134.648-2.1913.55711-3.35765a1.18815,1.18815,0,0,1,.142-.4371,4.93161,4.93161,0,0,0,.31632-.87654c.19487-1.2338.62977-2.41083.85219-3.63339.25131-1.38127.63523-2.72659.96721-4.08631a3.73588,3.73588,0,0,0,.18316-1.06613c-.05032-.84663.35718-1.61662.34738-2.44918a10.05439,10.05439,0,0,0,.47342-2.58471c.0782-.56451.1863-1.12487.27938-1.68736a16.28222,16.28222,0,0,0,.41281-3.70267,1.822,1.822,0,0,1,.20132-1.05557,1.20814,1.20814,0,0,0,.09059-.44924q.17385-1.46789.339-2.93676a2.04407,2.04407,0,0,0,.02866-.61569,18.24263,18.24263,0,0,1-.10667-3.41226c-.00664-.41462.00046-.83146-.04074-1.24309a1.49448,1.49448,0,0,0-1.39283-1.42759c-.51512-.04973-1.03519-.04809-1.51558-.06791a14.37569,14.37569,0,0,0-2.71266,1.57261,6.63461,6.63461,0,0,1-1.18508.73476,1.56909,1.56909,0,0,0-.8881.83035,1.208,1.208,0,0,1-.67573.60887,3.44379,3.44379,0,0,0-1.45245,1.01177,3.989,3.989,0,0,1-.72283,2.26487.814.814,0,0,0-.13833.27744c-.11013.39033-.20952.78368-.31289,1.17591a1.268,1.268,0,0,1-.08677,1.18854,9.08786,9.08786,0,0,1-.70969,3.00243c-.194.50144-.08751,1.03818-.27346,1.52371a9.59774,9.59774,0,0,0-.50123,1.61605,1.84545,1.84545,0,0,0-.03339.46268,4.8427,4.8427,0,0,1-.1964,1.38154,15.45792,15.45792,0,0,0-.56087,3.67166,12.42118,12.42118,0,0,1-.36087,2.29269,2.62818,2.62818,0,0,1-.361.69828,2.07964,2.07964,0,0,1-.13149-.2968c-.1508-.60651.085-1.23405-.10963-1.84757-.0554-.17466.08162-.40235.09028-.6074a5.03917,5.03917,0,0,0-.03624-.76871c-.02853-.25511-.11382-.506-.12369-.76066a5.26431,5.26431,0,0,0-.37657-2.41684.61949.61949,0,0,1-.05668-.30415c.04547-1.2419-.39579-2.45948-.1797-3.71237a2.15478,2.15478,0,0,0-.07525-.60854c-.04072-.30739-.08878-.61413-.11833-.92262a12.70585,12.70585,0,0,1,.02036-2.02087,7.69965,7.69965,0,0,0-.05176-2.01527,4.09141,4.09141,0,0,0-.68713-2.18339,3.72844,3.72844,0,0,1-.28793-1.50587.871.871,0,0,0-.32069-.8313,6.70939,6.70939,0,0,0-.83943-.68417.48211.48211,0,0,1-.25229-.502.66038.66038,0,0,0-.35483-.64166c-.35269-.20571-.71632-.39264-.98462-.53833-.72952.03768-1.35067.09538-1.97166.09366a2.53254,2.53254,0,0,0-1.32526.38144,4.39853,4.39853,0,0,1-.956.51135c-.89528.25574-1.802.48182-2.71622.65678a2.73066,2.73066,0,0,0-1.374.67821,2.3688,2.3688,0,0,0-.922,1.89238,5.32186,5.32186,0,0,1-.22852,2.1361,5.6041,5.6041,0,0,0-.1642,1.22534,3.66788,3.66788,0,0,1-.08044.76553,6.63007,6.63007,0,0,0-.28924,2.449,1.14569,1.14569,0,0,1-.30061.85125.50861.50861,0,0,0-.13818.4,1.50887,1.50887,0,0,1-.066,1.0489,9.78686,9.78686,0,0,0-.44494,2.11478c-.09274,1.08179-.20479,2.16268-.34244,3.23963a15.4889,15.4889,0,0,1-.4365,3.21744,1.43913,1.43913,0,0,0-.019.46421,2.67557,2.67557,0,0,1-.17678,1.06472.70259.70259,0,0,0-.03119.4416,2.7709,2.7709,0,0,1-.01143,1.23044,8.043,8.043,0,0,0-.29657,2.75157.97945.97945,0,0,1-.02373.309c-.24607,1.89809-.50706,3.79335-.93242,5.66235-.22983,1.00984-.43424,2.02544-.6523,3.038a2.88766,2.88766,0,0,0,.59523,2.76244c.06985.07528.14293.14759.25312.261A4.22008,4.22008,0,0,1,132.69245,121.90072ZM.60554,73.69032A2.70463,2.70463,0,0,0,.056,75.57711c.0082.15333-.04174.30884-.04934.4641a3.60582,3.60582,0,0,0,.31805,1.8166c.31167.6019.5481,1.224.80661,1.84305A3.95419,3.95419,0,0,0,2.456,81.38366a5.39841,5.39841,0,0,0,1.338.78217c.58313.21454,1.16661.42888,1.75545.6269a10.25158,10.25158,0,0,0,1.1953.34618c.76186.15648,1.53653.25293,2.29483.42346a4.54907,4.54907,0,0,0,1.38967.08223c1.19042-.09662,2.38042-.2014,3.57783-.17941a3.39913,3.39913,0,0,0,.92333-.10958A16.96964,16.96964,0,0,0,20.85,80.70224a6.0255,6.0255,0,0,1,.53129-.31919,36.38492,36.38492,0,0,0,3.51149-2.287A12.56716,12.56716,0,0,0,27.0668,76.1278c.85177-1.03585,1.81513-1.97066,2.59292-3.082a17.29022,17.29022,0,0,0,1.71015-2.76862c.21275-.47216.48079-.9192.69982-1.3888.39307-.84273.7906-1.68475,1.14019-2.54578.15322-.37739.14994-.81741.29668-1.19861.14645-.38047.47332-.66684.606-1.07777a5.73471,5.73471,0,0,1,.57764-1.27232c.3084-.49309.31806-1.08468.60406-1.57848a3.50863,3.50863,0,0,0,.23854-.57334,3.02907,3.02907,0,0,0,.06163-.30359c.14881-.60347.33673-1.20015.44023-1.81119a7.2551,7.2551,0,0,0,.40728-1.95447c.23834-.58106.25988-1.21807.437-1.80466a10.77153,10.77153,0,0,0,.30805-1.8192,4.54638,4.54638,0,0,1,.11574-.44934,14.92157,14.92157,0,0,0,.417-2.75818,2.44813,2.44813,0,0,1,.15757-.91357,9.9568,9.9568,0,0,0,.31318-1.83265,7.90917,7.90917,0,0,0,.22078-1.84793,17.93176,17.93176,0,0,1,.15533-2.48023c.14744-.87642.0708-1.76439.23909-2.63287a30.16143,30.16143,0,0,1,.14145-4.66,11.26667,11.26667,0,0,0-.0788-2.79309,1.17927,1.17927,0,0,1,.02373-.6038,3.0147,3.0147,0,0,0,.15747-1.071c.02579-1.40078.07037-2.80167.06579-4.20239-.0034-1.03615-.01932-2.07759-.12621-3.10664-.11353-1.09289.03438-2.17465.00851-3.26119-.00742-.31163-.02925-.62452-.01093-.93485a12.5659,12.5659,0,0,1,.04579-2.17262,2.24659,2.24659,0,0,0-.48182-1.74953,1.04858,1.04858,0,0,0-1.06824-.49954c-.25547.037-.50562.10937-.75953.15887a1.85913,1.85913,0,0,1-1.359-.13283.95712.95712,0,0,0-.7522-.10814,13.851,13.851,0,0,1-3.71427.32219,2.70434,2.70434,0,0,0-.92447.0864,5.2286,5.2286,0,0,1-1.84489.21126c-.62324.0129-1.24779-.01607-1.87019.01038a9.926,9.926,0,0,0-1.3875.15612,9.64185,9.64185,0,0,1-3.992.222,15.14807,15.14807,0,0,0-2.47818-.18,3.14218,3.14218,0,0,0-.46583.033c-1.75785.165-3.516.32693-5.27319.49854a5.12349,5.12349,0,0,1-1.54734.01129,1.85286,1.85286,0,0,0-.91557.08137,9.61372,9.61372,0,0,1-3.06171.483,7.62249,7.62249,0,0,0-.93061.08754,3.66885,3.66885,0,0,0-.45054.10735.43926.43926,0,0,0-.32734.45566c.06917.24947.131.50234.22123.74434a2.45863,2.45863,0,0,0,1.26624,1.49036c.32919.15116.63279.35981.96566.50063a2.49221,2.49221,0,0,0,.88932.25391,33.79976,33.79976,0,0,0,3.73622-.0447c1.44758-.14079,2.89909-.14194,4.34488-.26442,2.03359.151,4.03928-.2728,6.06475-.29877a3.79667,3.79667,0,0,0,.76254-.14619,7.82577,7.82577,0,0,1,1.859-.1568c.50623.00836.66816.142.71819.60155.02247.20639.04422.413.05854.62009a18.22007,18.22007,0,0,1,.08958,2.63582,10.828,10.828,0,0,0,.21041,2.6287,5.93472,5.93472,0,0,1,.10777,1.384c-.04654.77683-.1171,1.55223-.17858,2.32816a1.32914,1.32914,0,0,0-.03536.45315c.23441.75746.11918,1.55374.27729,2.31528a1.71918,1.71918,0,0,1-.08446,1.21036.91258.91258,0,0,0-.00652.44674,3.33093,3.33093,0,0,1,.07211.76215,15.76831,15.76831,0,0,0-.15939,3.1c.01585.46509.01777.92817.05908,1.39427a7.31663,7.31663,0,0,1-.01489,1.39482,12.05214,12.05214,0,0,0-.18508,3.09558,2.13781,2.13781,0,0,1-.05373.61923c-.14682.97231-.1738,1.958-.37753,2.92618a13.05047,13.05047,0,0,0-.18666,1.85774c-.0328.51687-.00042,1.03813-.03887,1.55431a6.258,6.258,0,0,1-.40769,2.1272,3.54844,3.54844,0,0,0-.19358.90569A4.60568,4.60568,0,0,0,25.10115,55c.04083.44957-.27578.77741-.30405,1.19061-.00354.05163-.022.10256-.0229.154a5.03463,5.03463,0,0,1-.4236,2.26094c-.12669.251-.01026.61488-.05118.921-.08923.66748-.64058,1.18756-.62224,1.89779a.4352.4352,0,0,1-.13171.26988,3.89591,3.89591,0,0,0-.91331,1.779,16.087,16.087,0,0,0-.71743,1.86494,4.20208,4.20208,0,0,1-.88851,1.95421,1.35994,1.35994,0,0,0-.328.68426,6.803,6.803,0,0,1-1.49091,3.20518c-.67913.96559-1.67807,1.69393-2.15211,2.82367a.37541.37541,0,0,1-.09926.11871,6.86089,6.86089,0,0,1-2.04407,1.63805,2.343,2.343,0,0,0-.60269.477,2.95782,2.95782,0,0,1-.44848.41578A16.66316,16.66316,0,0,1,11.642,77.771a7.40418,7.40418,0,0,1-1.692.18379c-.25776.02759-.51075.10335-.76864.12548a6.28057,6.28057,0,0,1-4.99558-1.32829c-.08364-.2575-.18871-.54717-.27009-.84334-.05452-.19839-.06511-.40849-.113-.60913a34.99732,34.99732,0,0,1-.70081-3.49863c-.01976-.148-.29992-.34612-.471-.35181a2.67386,2.67386,0,0,0-1.7474.53755.37755.37755,0,0,0-.1456.40524c.0443.20166.11908.39662.18185.598A3.176,3.176,0,0,1,.60554,73.69032ZM231.847,101.38553c.51386-.34795,1.04179-.67626,1.54359-1.0406.539-.39134.91459-1.00577,1.61609-1.17767.044-.01077.08081-.06286.11447-.10139a20.74846,20.74846,0,0,0,2.78412-3.341,3.13377,3.13377,0,0,1,.66056-.85707c.477-.40623,1.025-.73249,1.00863-1.47351-.00189-.08549.09763-.17956.16291-.25917a9.12652,9.12652,0,0,0,1.205-2.16827,3.15232,3.15232,0,0,0,.49209-1.75995,1.22143,1.22143,0,0,1,.314-.86028,1.70861,1.70861,0,0,0,.282-1.02943,8.942,8.942,0,0,1,.07569-1.86171,11.27879,11.27879,0,0,0,.00789-2.16682,1.1387,1.1387,0,0,0-.22491-.569c-.10754-.17424-.28381-.30478-.40179-.4741-.50638-.72675-1.20171-1.28162-1.76335-1.9574-.675-.26251-1.3495-.52625-2.02549-.78616-.09649-.0371-.2054-.04362-.29955-.08488a3.04982,3.04982,0,0,0-2.27587-.10132,3.8101,3.8101,0,0,1-1.22912.15014,5.9974,5.9974,0,0,1-2.28243-.40868,1.84085,1.84085,0,0,0-1.48462.02394,5.59627,5.59627,0,0,0-1.7641.96168,1.89112,1.89112,0,0,1-.82423.39964c-.99895.26487-1.9953.54148-2.97724.86761-.44161.14667-.9137.21341-1.33907.39391a3.05009,3.05009,0,0,1-1.36558.2211,5.75579,5.75579,0,0,0-.93042.03467,2.71821,2.71821,0,0,0-2.44938,2.25546,6.66832,6.66832,0,0,0-.29868,2.7594c.02142.08641-.04735.19359-.06841.29236a9.93852,9.93852,0,0,0-.35793,2.43752,1.48448,1.48448,0,0,1-.13394.5974,1.81338,1.81338,0,0,0-.14243.75382,8.05779,8.05779,0,0,1-.84558,3.59667,3.91632,3.91632,0,0,0-.42606,1.32264,1.156,1.156,0,0,1-.11162.44974,4.20176,4.20176,0,0,0-.40483,1.32686c-.0787.4389-.4874.79358-.39519,1.29879a20.57775,20.57775,0,0,0-1.1082,4.02781,1.18113,1.18113,0,0,1-.10562.292,21.86254,21.86254,0,0,1-.89778,2.65225,1.27437,1.27437,0,0,0-.11292.44947,7.19541,7.19541,0,0,1-.72212,2.20523,3.31034,3.31034,0,0,0-.32519,1.028,3.90838,3.90838,0,0,1-.68549,1.88551,7.2226,7.2226,0,0,0-1.07079,2.55664,13.618,13.618,0,0,1-1.15189,3.02137c-.442.81755-.83542,1.66315-1.21224,2.51323a6.11484,6.11484,0,0,0-.18772.90784,3.335,3.335,0,0,1-.22071.40181,1.9536,1.9536,0,0,0-.19549.5791,1.84236,1.84236,0,0,1-.32249.85462,13.59967,13.59967,0,0,0-1.23249,2.48618,3.19984,3.19984,0,0,0,.02284,2.41042c.13033.334.234.6783.36078,1.05a6.00883,6.00883,0,0,1,1.13975.37549c.68912.38413,1.48658.44361,2.18177.79786a.83256.83256,0,0,0,.45556.00485,3.3646,3.3646,0,0,1,.605-.12972,9.62758,9.62758,0,0,0,2.60169-.41974,19.24529,19.24529,0,0,0,1.89942-.68714,3.15443,3.15443,0,0,0,1.67515-1.05589,1.06337,1.06337,0,0,1,.34852-.30724,1.15648,1.15648,0,0,0,.59948-1.02336,2.05148,2.05148,0,0,1,.29334-1.01541,7.60848,7.60848,0,0,0,.4192-1.00036,2.82633,2.82633,0,0,1,.32791-.69538,1.43453,1.43453,0,0,0,.30458-1.01469,1.16828,1.16828,0,0,1,.22232-.73,3.74651,3.74651,0,0,0,.45143-.98333,8.45072,8.45072,0,0,1,1.05123-2.24912,3.40332,3.40332,0,0,0,.40417-.83765c.76093-2.144,1.72107-4.21326,2.39506-6.38963a10.24012,10.24012,0,0,0,.931-2.62767,23.75693,23.75693,0,0,1,.87527-2.82324,2.71219,2.71219,0,0,0,.2-.74192,3.64816,3.64816,0,0,1,.73035-1.69.27927.27927,0,0,1,.26872-.05261,2.22613,2.22613,0,0,1,.72858.5525,2.8576,2.8576,0,0,1,.54447,1.43964,12.24677,12.24677,0,0,1,.07215,1.39166,6.48532,6.48532,0,0,0,.17373,1.37538,1.46374,1.46374,0,0,1-.16125.90129,1.82855,1.82855,0,0,0-.1396,1.06609,4.697,4.697,0,0,0,.084.77309,1.49794,1.49794,0,0,1-.12919,1.33088c-.18805,1.17508-.4117,2.34593-.552,3.52669a11.8737,11.8737,0,0,1-.544,2.4181,1.78,1.78,0,0,0-.16647.749c.09613.69-.26132,1.32081-.20472,2.00252a1.09311,1.09311,0,0,1-.15954.58933,2.89443,2.89443,0,0,0-.28755,1.19724c-.06444.61634-.17058,1.229-.27945,1.83954a.81492.81492,0,0,1-.2084.40466,1.87844,1.87844,0,0,0-.46786.96494,3.95626,3.95626,0,0,1-.27006.891,2.317,2.317,0,0,0-.11936,1.371,1.36653,1.36653,0,0,0,.90518,1.17176,4.03649,4.03649,0,0,0,2.72459.35965,1.43933,1.43933,0,0,1,.46391-.03185.44913.44913,0,0,1,.29131.07442c.39782.44866.74739.16968,1.08209-.07009.33594-.24065.64585-.5174.97011-.77463a1.93617,1.93617,0,0,0,.89936-1.553,4.03916,4.03916,0,0,1,.21774-.90367,5.42411,5.42411,0,0,0,.19912-2.30436,1.09328,1.09328,0,0,1-.00513-.46094,2.69265,2.69265,0,0,0,.25467-1.50076,4.42512,4.42512,0,0,0,.37045-2.42131.978.978,0,0,1,.058-.30453,9.99787,9.99787,0,0,0,.33293-2.46253,6.78586,6.78586,0,0,1,.17125-1.545,6.95116,6.95116,0,0,0,.13841-2.46791,31.89437,31.89437,0,0,1-.07321-4.823,1.79087,1.79087,0,0,0-.0457-.61251,3.153,3.153,0,0,1,.06711-1.689c-.42389-.46724-.44284-.46545-.47112-.76284a2.21492,2.21492,0,0,0-.49471-1.4394.65352.65352,0,0,1-.13567-.43082,1.69876,1.69876,0,0,0-.50113-1.10842.77146.77146,0,0,1-.07413-.28992C231.7915,101.46768,231.80888,101.41131,231.847,101.38553Zm-3.87041-4.67525a6.32281,6.32281,0,0,0,.30922-1.83086,2.6283,2.6283,0,0,1,.423-1.62.87444.87444,0,0,0,.15918-.43187c.05184-1.08888.4841-2.11559.48321-3.21947a16.00955,16.00955,0,0,1,.26036-1.841c.11511-.97629.21062-1.955.30093-2.934a5.01335,5.01335,0,0,0-.00872-.77052,2.37556,2.37556,0,0,1,.68905-1.96229c.14753-.14384.26058-.3227.40537-.46982a.56759.56759,0,0,1,.55644-.19816,6.26951,6.26951,0,0,0,1.84507.20379,1.56687,1.56687,0,0,1,.46355.02788,11.14168,11.14168,0,0,0,2.30494.29934.59127.59127,0,0,1,.4984.32395,10.52061,10.52061,0,0,1,.9096,1.77937,3.72247,3.72247,0,0,1,.14015,1.98922,25.66984,25.66984,0,0,1-.95932,3.731,6.0195,6.0195,0,0,1-.98239,1.91385c-.31553.3431-.33206.85739-.72873,1.17466a7.39453,7.39453,0,0,0-.95222,1.01732c-.53535.62859-1.04585,1.27844-1.58535,1.90336a5.31364,5.31364,0,0,1-1.375,1.23448,4.8293,4.8293,0,0,0-1.5592,1.24275,1.48406,1.48406,0,0,1-1.39091.52466.9045.9045,0,0,1-.63443-.19471C227.68375,97.99324,227.79742,97.34249,227.97655,96.71028ZM216.44076,51.29966a9.15634,9.15634,0,0,1,.35638-2.30284,1.57149,1.57149,0,0,1,.50357-.94568,1.37046,1.37046,0,0,0,.56407-.88492,3.222,3.222,0,0,1,.5332-1.10608,9.75864,9.75864,0,0,1,1.60834-1.88253,3.32249,3.32249,0,0,0,.51355-.5829,21.821,21.821,0,0,0,2.0544-2.92947,2.324,2.324,0,0,1,.35086-.51308,7.41454,7.41454,0,0,0,1.38834-2.055.18365.18365,0,0,1,.12393-.08844.31556.31556,0,0,1,.45787.24535c.23028.53719.1141,1.14437.28964,1.67539a8.00267,8.00267,0,0,1,.26522,1.99041,9.658,9.658,0,0,0,.39989,3.07385,14.51,14.51,0,0,1,.08471,2.1648,1.44664,1.44664,0,0,0-.02.61717,6.54229,6.54229,0,0,1-.02853,2.47446,6.23458,6.23458,0,0,0,.30939,3.21842,1.89973,1.89973,0,0,1,.12837.59758q.06837,1.00944.104,2.021a12.86021,12.86021,0,0,1-.22286,3.5468,8.55835,8.55835,0,0,1-.35575,1.01835,1.26755,1.26755,0,0,0,.01219,1.0613,1.96511,1.96511,0,0,0,1.71009,1.17313c.467.01927.93665-.00929,1.40236.02309a4.74525,4.74525,0,0,0,2.2124-.65193.55046.55046,0,0,0,.22095-.21291,2.299,2.299,0,0,0,.52946-1.87765c-.08353-.32941.08457-.715.053-1.06737a7.61689,7.61689,0,0,0-.25816-1.05113,1.30929,1.30929,0,0,1-.01538-.3104c.00581-.7269-.0063-1.45469.02686-2.1804a7.37586,7.37586,0,0,0-.065-1.86179c-.13834-.6651.132-1.33622-.00115-2.00419-.03979-.19956-.09395-.39638-.14509-.59354a4.69155,4.69155,0,0,1-.26136-1.04723c-.01157-.77737-.18234-1.53978-.13331-2.32541.04835-.77489-.01375-1.55731-.041-2.33595a2.2369,2.2369,0,0,0-.103-.76433,11.30917,11.30917,0,0,1-.44655-1.96412c-.15665-.70816-.26315-1.429-.35816-2.14869A4.83039,4.83039,0,0,1,229.93,38.838a11.32083,11.32083,0,0,1-.4315-1.96863,1.86809,1.86809,0,0,0-.15823-.4373c-.34106-.9225-.68774-1.843-1.0186-2.76911a.77086.77086,0,0,1,.10213-.74048,5.06252,5.06252,0,0,0,.47068-.61884,18.80988,18.80988,0,0,1,1.80122-2.71748,4.158,4.158,0,0,0,.33357-.52537c.24929-.45591.3521-.973.55874-1.43909a12.238,12.238,0,0,1,.86446-1.2859c.18691-.3064.27742-.67115.46126-.97991.71629-1.20312,1.44968-2.39612,2.18372-3.58855a3.13551,3.13551,0,0,1,.54015-.75627,8.67891,8.67891,0,0,0,1.43036-1.83654,12.19743,12.19743,0,0,1,1.42537-1.83963,10.391,10.391,0,0,0,.88549-1.08556,2.936,2.936,0,0,0,.29916-.54324.81667.81667,0,0,0-.33973-.94268,7.01023,7.01023,0,0,0-1.16112-.42885,1.63,1.63,0,0,0-1.33346.261,5.26554,5.26554,0,0,0-1.54045,1.52075,19.728,19.728,0,0,1-2.7833,3.53061,17.38831,17.38831,0,0,0-2.22871,2.97552,14.37042,14.37042,0,0,0-1.49569,2.715c-.23641.61723-.67,1.16021-.88359,1.80524a1.60081,1.60081,0,0,1-.252.39205,16.202,16.202,0,0,1-3.24125,3.74961c-.24706.18558-.44963.42945-.67948.639a11.38051,11.38051,0,0,0-2.11269,2.47123c-.16007.263-.37929.48987-.54193.75159a8.4288,8.4288,0,0,0-.86721,1.45829,9.154,9.154,0,0,1-1.4134,2.69736c-.17577.25491-.325.52842-.48161.79619-.23566.40288-.45989.81278-.7076,1.208-.04107.0655-.17515.08967-.26991.10038a.17335.17335,0,0,1-.20829-.18c-.01378-.88157-.02941-1.76318-.03224-2.64482-.002-.62317.01507-1.24639.02361-1.8696a4.29974,4.29974,0,0,0,.22107-1.98573,17.08884,17.08884,0,0,1,.249-1.84862,12.078,12.078,0,0,0,.20065-3.24833,1.47538,1.47538,0,0,1,.02186-.61646,6.83638,6.83638,0,0,0,.18619-1.84719c.12576-1.70651.02386-3.41948.13626-5.12731a6.05963,6.05963,0,0,1,.01176-.92245,13.171,13.171,0,0,0,.25573-2.78492,22.67792,22.67792,0,0,1,.25928-4.19008,3.51827,3.51827,0,0,0-.00162-1.23847.55262.55262,0,0,0-.38654-.43794c-.81839-.12339-1.63581-.25972-2.45826-.34737a3.64983,3.64983,0,0,0-1.53766.17967,17.02858,17.02858,0,0,1-4.274.74749,2.37422,2.37422,0,0,0-1.16044.399,3.188,3.188,0,0,0-1.44956,2.29336c-.07307.46114-.12013.92637-.19018,1.388a1.92871,1.92871,0,0,1-.16543.74983,5.375,5.375,0,0,0-.43108,1.4733,3.67192,3.67192,0,0,0-.09584,1.692,1.80351,1.80351,0,0,1-.03947.61911,14.3759,14.3759,0,0,1-.50878,3.037,1.248,1.248,0,0,0-.03717.46253c-.0212,1.401-.03489,2.80219-.0609,4.20313a16.01892,16.01892,0,0,1-.10163,2.48434,15.354,15.354,0,0,0-.16515,2.1636,14.61469,14.61469,0,0,1-.124,2.01252c-.08088.45813-.14772.91-.19479,1.37351-.10458,1.02973-.22915,2.062-.43131,3.07611a9.99617,9.99617,0,0,0-.02818,3.71087,5.87462,5.87462,0,0,1,.091,1.54638,14.79327,14.79327,0,0,0,.00378,1.707c.024,1.03633.03333,2.073.04176,3.10964a.94023.94023,0,0,1-.06254.4581,3.35123,3.35123,0,0,0-.21222,1.82707,1.68868,1.68868,0,0,1-.25167,1.04042.98955.98955,0,0,0-.18635.7387,18.45367,18.45367,0,0,0,.29664,2.93428,1.69384,1.69384,0,0,1,.00156.91783,3.58908,3.58908,0,0,0,.02921,1.5379,1.59063,1.59063,0,0,0,1.15888,1.31933c.38974.1352.77262.29821,1.17136.3972a2.00524,2.00524,0,0,1,.95863.47161.92958.92958,0,0,0,.579.15907c.51767.00993,1.03649-.01009,1.55406-.03444a3.35953,3.35953,0,0,0,1.07739-.11129,8.21763,8.21763,0,0,1,1.51739-.27253c.55391-.11619.96023-.58852,1.51838-.74612a2.33536,2.33536,0,0,0,1.4943-1.27442,1.755,1.755,0,0,1,.41729-.44683.8866.8866,0,0,0,.262-.70457c-.00225-.3107-.0314-.62211-.06457-.93153a15.44639,15.44639,0,0,1,.078-3.42029,11.49232,11.49232,0,0,0,.13942-1.86028C216.44049,51.92319,216.43908,51.61141,216.44076,51.29966Zm-149.32824,2.043a6.75419,6.75419,0,0,0,.11631,1.54192,5.97412,5.97412,0,0,1,.16431,1.378c.03863,1.03739-.12271,2.07305-.00292,3.1112.16658,1.44348.189,2.89726.2854,4.34583.07233,1.08654.12744,2.17449.17217,3.26255.05107,1.24192.068,2.48535.12822,3.72674a9.24247,9.24247,0,0,0,.19979,1.69653,6.51217,6.51217,0,0,1-.01373,3.0759,4.99586,4.99586,0,0,0-.14277,1.53727c.10347,1.23736.35639,2.46046.34838,3.7106a1.04693,1.04693,0,0,0,.68722.77944,3.51163,3.51163,0,0,0,1.69749.03852c.70233-.17436,1.39039-.40986,2.07646-.64293a.59434.59434,0,0,0,.32706-.30805,2.69713,2.69713,0,0,0,.36292-1.78562,1.57611,1.57611,0,0,1,.02143-.4634,14.46069,14.46069,0,0,0-.1874-2.94634,4.61144,4.61144,0,0,1-.045-1.07894,19.57042,19.57042,0,0,0-.20832-4.78931c-.02945-.205-.03547-.41376-.04562-.6211-.13677-2.79459-.36028-5.58489-.41051-8.38391a4.35081,4.35081,0,0,0-.12008-.92107c-.254-1.06817-.09361-2.1683-.26857-3.24127a6.087,6.087,0,0,0-.02646-1.70676,2.9661,2.9661,0,0,1,.0088-.77373,1.58515,1.58515,0,0,0-.04581-1.06156,41.27159,41.27159,0,0,0-.23068-4.349,2.87858,2.87858,0,0,1,.01566-.46677,3.49993,3.49993,0,0,0-.136-1.98953.89455.89455,0,0,1-.03624-.46133,23.69065,23.69065,0,0,0-.17974-4.50021,5.55,5.55,0,0,1,.01551-1.39733c.0973-.61515.31265-1.20457-.11533-1.79449-.10293-.14187-.05016-.40335-.053-.61a11.57427,11.57427,0,0,0-.25073-2.62947,7.17973,7.17973,0,0,1-.10514-1.08315c-.02695-.30912-.04794-.61883-.07984-.92742-.06923-.66966-.18-1.33742-.205-2.00852a8.81223,8.81223,0,0,0-.12961-1.703,1.18846,1.18846,0,0,1-.02656-.46289,13.46681,13.46681,0,0,0-.20619-3.70919c-.10754-1.081-.22016-2.15953-.30123-3.2439a8.55943,8.55943,0,0,0-.441-1.96706,1.423,1.423,0,0,0-.93571-.96753c-.34622-.10679-.69923-.19755-1.03457-.332a1.53643,1.53643,0,0,0-1.064-.04378,8.40921,8.40921,0,0,1-2.63113.114.79692.79692,0,0,1-.44495-.113,4.52244,4.52244,0,0,0-2.06941-.59809,4.51281,4.51281,0,0,0-4.04326,1.07194c-.15255.13968-.3232.25942-.47918.39559a1.87934,1.87934,0,0,0-.62561,1.048,2.49982,2.49982,0,0,1-.405,1.16266,5.54112,5.54112,0,0,0-.88763,1.96211,1.67246,1.67246,0,0,1-.18921.5747,6.5823,6.5823,0,0,0-.66491,1.2252c-.30125.54288-.63041,1.07041-.92654,1.61595a4.49086,4.49086,0,0,0-.5148,1.12155,6.18257,6.18257,0,0,1-.53994,1.4464,6.93448,6.93448,0,0,0-.36028.86019,22.74538,22.74538,0,0,1-1.36149,2.89037.80482.80482,0,0,0-.13353.7362.67072.67072,0,0,1-.2428.8209,1.49291,1.49291,0,0,0-.46777.76137,6.65949,6.65949,0,0,1-.7532,1.85422,1.23244,1.23244,0,0,0-.22059.56778,4.51307,4.51307,0,0,1-.58776,1.59116,2.1193,2.1193,0,0,0-.30457.70619,5.81956,5.81956,0,0,1-.5,1.46056,3.79537,3.79537,0,0,1-.70213,1.53466,6.7982,6.7982,0,0,0-.47319,1.63138,2.76072,2.76072,0,0,1-.33275,1.18592,9.53667,9.53667,0,0,0-.82094,1.99868,5.904,5.904,0,0,1-.63476,1.56788,1.71652,1.71652,0,0,0-.28695.53875,4.54273,4.54273,0,0,1-.85151,1.8095c-.24709.41095-.23283.89747-.51937,1.282a1.94442,1.94442,0,0,0-.18515.58213c-.09159.29556-.16631.59827-.28288.88378a4.32562,4.32562,0,0,0-.29964,2.28233c.0361.25519.05662.51257.08364.76321l1.07192,1.274c.90119.23853,1.76121.42967,2.5964.69807a6.29623,6.29623,0,0,0,2.29045.31435c.259-.01385.51921-.0085.77886-.0082a2.04908,2.04908,0,0,0,1.04122-.25768c.99381-.55939,2.00948-1.08015,3.00017-1.64485a2.418,2.418,0,0,0,1.30045-1.65589,1.81948,1.81948,0,0,1,.52658-.935,2.14419,2.14419,0,0,0,.58894-.78989,4.67263,4.67263,0,0,1,.54154-2.938c.341-.69643.58986-1.43824.87467-2.16183.11345-.28824.19536-.58994.32254-.87155a12.37218,12.37218,0,0,0,.91589-2.29858,1.2404,1.2404,0,0,1,.142-.27555.53056.53056,0,0,1,.55582-.14662,1.59379,1.59379,0,0,1,.388.24193,3.06212,3.06212,0,0,0,1.0448.65975,12.36656,12.36656,0,0,0,1.89937.679,3.02876,3.02876,0,0,1,1.84787,1.055,1.656,1.656,0,0,0,.60671.47814,5.92727,5.92727,0,0,1,1.6823,1.36437c.21291.22308.46522.40856.6715.58683A5.81011,5.81011,0,0,1,67.11252,53.34264ZM66.04877,31.73873a.41461.41461,0,0,1,.047.29416c-.30243.65764-.03286,1.32676-.0548,1.98847a15.04978,15.04978,0,0,0-.00388,2.00926,18.58538,18.58538,0,0,0,.32043,2.12209,4.38052,4.38052,0,0,1,.06931,1.8455c-.16034.76993.00891,1.54343-.114,2.312a3.81987,3.81987,0,0,0,.108.92049c.02546.257.03779.51618.0379.77441a.67727.67727,0,0,1-.6684.53038c-.05114-.00577-.10423.00085-.15424-.00916a8.92254,8.92254,0,0,0-1.50207-.34775.47483.47483,0,0,1-.28523-.10816c-.456-.41569-1.06283-.671-1.38116-1.22959a3.2526,3.2526,0,0,0-1.60351-1.38363,1.61468,1.61468,0,0,1-.50982-.33374.55513.55513,0,0,1-.14015-.41166,3.32055,3.32055,0,0,1,.22792-.73633c.52349-1.287,1.05568-2.57044,1.5833-3.85575.07641-.18615.14124-.377.21675-.56357q.55243-1.36485,1.10893-2.72805c.15664-.38151.35332-.74882.4824-1.13894A5.74812,5.74812,0,0,1,64.835,29.62143a4.916,4.916,0,0,0,.50481-1.125c.03225-.068.16585-.104.25916-.1232.13982-.02872.28421.12721.27809.28809-.01571.41278-.03556.8254-.04989,1.15067A7.05629,7.05629,0,0,0,66.04877,31.73873Zm97.22656,100.24391a1.0733,1.0733,0,0,0,.36.28936,13.48309,13.48309,0,0,0,1.89431.69646c.80481.18792,1.63978.24454,2.45988.37007.48823.07475.90463-.209,1.36829-.24663a4.57621,4.57621,0,0,1,.46663-.02543,3.66733,3.66733,0,0,0,1.51222-.31038,6.40141,6.40141,0,0,1,1.03983-.317,4.70344,4.70344,0,0,0,1.4152-.625c.96928-.59645,1.93707-1.1962,2.92293-1.76432a1.90907,1.90907,0,0,0,.76283-.74836c.398-.72733.83967-1.4346,1.18315-2.18675a4.62519,4.62519,0,0,0,.68347-2.3589.93851.93851,0,0,1,.10245-.44926,9.32618,9.32618,0,0,0,.88434-4.05779c-.00361-.25364.0894-.5072.109-.763a6.08118,6.08118,0,0,0,.02945-1.0822,2.36541,2.36541,0,0,1,.05018-.915,3.33765,3.33765,0,0,0,.08728-.92488,32.45558,32.45558,0,0,0-.09036-3.26453c-.11624-1.02854-.00946-2.06751-.21374-3.08562a47.30827,47.30827,0,0,0-.34137-5.26863,12.8342,12.8342,0,0,0-.14892-1.39325c-.05614-.39608.19953-.83143-.148-1.19015q-.00437-.69956-.00906-1.39908a2.89458,2.89458,0,0,0-.01616-.62177,15.02635,15.02635,0,0,1-.12985-3.08621c-.00658-.257.10607-.543.02674-.76713a6.06044,6.06044,0,0,1-.14966-2.00163c-.00687-.41529-.01669-.83057-.01857-1.24588-.00187-.41339.00449-.82683.00723-1.24024.36125-.39008.05037-.78246.01115-1.17617a.93386.93386,0,0,1,.05321-.45438,4.67242,4.67242,0,0,0,.272-2.14169c-.0371-.98392.02308-1.96545.03878-2.94808a9.999,9.999,0,0,1,.40183-1.79737c.02459-.12418.2935-.15676.3843-.06161a1.12736,1.12736,0,0,1,.399.81293,3.45521,3.45521,0,0,0,.34772,1.66165,3.05524,3.05524,0,0,1,.25182,1.36367,4.0722,4.0722,0,0,0,.33783,1.48861c.15052.36535.45742.74381.06076,1.14657a2.75184,2.75184,0,0,0,.26012,1.50977,2.617,2.617,0,0,1,.22819,1.51238,7.00957,7.00957,0,0,0,.2327,2.61693,5.45511,5.45511,0,0,1,.17021,1.53384,8.296,8.296,0,0,0,.00771.93132c.07934.82919-.14136,1.646-.08419,2.4731a2.072,2.072,0,0,1-.0047.46647,2.292,2.292,0,0,1-.14074.44,17.37444,17.37444,0,0,1-.6693,2.54272.29419.29419,0,0,0-.02949.151,11.61256,11.61256,0,0,0,.19667,2.16657.79029.79029,0,0,0,.984.49249c.67225-.31838,1.32689-.647,1.2744-1.56372-.0048-.08361.11464-.16907.16011-.26167a3.1567,3.1567,0,0,0,.42082-1.633,5.41423,5.41423,0,0,1,.09615-.77041c.08164-1.03156.19117-2.0629.21667-3.09614a12.30088,12.30088,0,0,0-.17043-1.85865,5.6218,5.6218,0,0,1,.00221-1.85857,2.73172,2.73172,0,0,0,.0275-1.23419c-.34993-1.36255-.08164-2.79142-.46362-4.15493a2.13785,2.13785,0,0,1,.02318-1.08,2.57944,2.57944,0,0,0-.17039-1.67159,2.90589,2.90589,0,0,1-.20375-1.35662c.02124-.311.03639-.62241.06239-.933a1.1399,1.1399,0,0,0-.25245-.86692,1.2316,1.2316,0,0,1-.24734-1.17047.62753.62753,0,0,0-.14049-.5738,1.03343,1.03343,0,0,1-.22032-.3904c-.06947-.409-.10684-.82386-.14652-1.23741a5.711,5.711,0,0,0-1.62408-3.59894,2.5167,2.5167,0,0,0-1.31081-.7654,5.11431,5.11431,0,0,0-1.08089-.09516,16.9779,16.9779,0,0,0-2.94742.22826,4.29311,4.29311,0,0,1-1.0794.03729c-.77569-.05272-1.54807-.15531-2.32389-.20437a7.29724,7.29724,0,0,0-1.0861.054,1.82362,1.82362,0,0,0-1.21528.63048,14.03336,14.03336,0,0,0-2.10664,3.59805,1.88491,1.88491,0,0,0-.13682.75983,5.24061,5.24061,0,0,1-.47436,1.94949,5.84018,5.84018,0,0,0-.43053,3.03313,3.00344,3.00344,0,0,1-.2301,1.82263,2.84105,2.84105,0,0,0-.2712,2.10617,1.96573,1.96573,0,0,1,.00451.92144,9.70558,9.70558,0,0,0-.14026,2.32135,42.24826,42.24826,0,0,1-.094,5.59765,2.559,2.559,0,0,0,.0767,1.07419,2.285,2.285,0,0,1,.06952,1.06277,4.63485,4.63485,0,0,0,.03431.92637,10.16588,10.16588,0,0,1,.12437,1.39206c-.03606.63415.23439,1.21264.23319,1.84249a4.8129,4.8129,0,0,0,.31988,1.19175,2.91321,2.91321,0,0,1,.13271.5997c.02773.51806.03083,1.03762.03673,1.55664a3.652,3.652,0,0,0,.174,1.68215c-.23671.52975.18149.99644.1427,1.51151a13.73268,13.73268,0,0,0,.02577,2.64184,25.99307,25.99307,0,0,0,.0203,3.73185,12.69484,12.69484,0,0,1-.15767,2.94445,9.84644,9.84644,0,0,1-.53964,3.02777c-.0419.20146-.1316.39314-.17151.59481-.09017.45584-.163.9151-.24287,1.373q-.57806.49917-1.15625.9981c-.03875.0334-.07674.0833-.12133.09146a1.199,1.199,0,0,1-.44509.04653,4.06147,4.06147,0,0,1-.5756-.22873,1.05982,1.05982,0,0,1-.72913-.92323,2.27207,2.27207,0,0,0-.30595-.87275,1.37374,1.37374,0,0,1-.22489-.56984,15.42761,15.42761,0,0,0-.71286-2.83643,2.52284,2.52284,0,0,0-2.12735.0017,1.07473,1.07473,0,0,0-.08531.32345,2.61466,2.61466,0,0,0,.12292.75628,1.20352,1.20352,0,0,1,.05487.75458,1.74893,1.74893,0,0,0-.07824.91077c.07955.287-.02977.62495.04391.91513.178.70111.41041,1.38862.63115,2.07833a.5749.5749,0,0,0,.1827.2478,1.95278,1.95278,0,0,1,.67187,2.10059,1.70579,1.70579,0,0,0,.02006.45511C162.59616,131.21239,162.93012,131.60264,163.27533,131.98264Zm114.35446-1.24892a17.91744,17.91744,0,0,0,2.51861-1.19152,2.491,2.491,0,0,0,1.15-1.01334,1.49209,1.49209,0,0,1,.56637-.50289.70717.70717,0,0,0,.11916-1.16362.75077.75077,0,0,1-.21523-.5438,13.27559,13.27559,0,0,1,.33252-2.60633c.1178-.55713.27786-1.10521.40093-1.66136.21272-.96126.38843-1.93126.622-2.88726a15.15169,15.15169,0,0,0,.65439-3.34377,1.0798,1.0798,0,0,1,.04505-.30749,6.01129,6.01129,0,0,0,.36966-2.13546,1.0072,1.0072,0,0,1,.11507-.44669,4.28613,4.28613,0,0,0,.41035-.82281,7.4075,7.4075,0,0,0,.02054-1.06792,5.65867,5.65867,0,0,1,.1253-.7674.61531.61531,0,0,1,.63668-.55477c.41054-.03576.849.14077,1.22817-.0751a7.70641,7.70641,0,0,1,1.62874-.50645,6.70077,6.70077,0,0,0,3.14659-1.59267c.0334-.03571.0934-.045.13636-.07357a13.22128,13.22128,0,0,0,3.9082-4.14966,34.05934,34.05934,0,0,0,2.666-5.24508,14.30105,14.30105,0,0,0,1.184-3.68068,1.04385,1.04385,0,0,1,.45853-.7645.504.504,0,0,0,.13754-.4141,10.73477,10.73477,0,0,1-.02564-1.8625c-.001-.88219.01266-1.7644.02025-2.6466a3.84142,3.84142,0,0,0-.603-2.215.79251.79251,0,0,1-.09919-.72975.29892.29892,0,0,0-.14888-.38516,1.05551,1.05551,0,0,1-.51451-.912,6.19527,6.19527,0,0,0-.605-1.74613,4.72031,4.72031,0,0,0-2.89983-2.83437,4.53871,4.53871,0,0,1-1.23957-.62183,1.85189,1.85189,0,0,0-1.16556-.36744,8.213,8.213,0,0,0-2.77816.164.44841.44841,0,0,1-.30515-.00192,1.52558,1.52558,0,0,0-1.19972.0831,3.8871,3.8871,0,0,1-1.66522.31075,1.24567,1.24567,0,0,0-.878.26A10.64912,10.64912,0,0,1,283.36,81.19521a13.1866,13.1866,0,0,0-1.50215.80886,5.54569,5.54569,0,0,0-.63426.445,5.423,5.423,0,0,1-.71758.581,3.952,3.952,0,0,0-1.06138.90363c-.51971.57515-.98424,1.20012-1.472,1.80416-.08452.69329-.59673,1.19113-.82925,1.81647a1.798,1.798,0,0,0-.13206.44433,7.568,7.568,0,0,1-.48108,1.79926,3.13185,3.13185,0,0,0-.18652.74872,36.75783,36.75783,0,0,1-1.04753,5.16715c-.20143.86093-.35075,1.72571-.47108,2.59617a14.215,14.215,0,0,1-.299,1.98227,7.3731,7.3731,0,0,0-.13233,1.85686,3.16715,3.16715,0,0,1-.21916,1.21621,4.51982,4.51982,0,0,0-.33931,1.97738,6.90391,6.90391,0,0,1-.26669,2.1514,8.57187,8.57187,0,0,0-.36032,1.49939,9.118,9.118,0,0,1-.38455,1.65429c-.16658.59058-.15975,1.23032-.32871,1.81992a8.1459,8.1459,0,0,1-.56989,1.7685,8.44068,8.44068,0,0,0-.44222,1.96,1.91735,1.91735,0,0,1-.09858.29515,4.20564,4.20564,0,0,0-.40245,1.96026,2.00663,2.00663,0,0,1-.04989.46258,12.54747,12.54747,0,0,1-.36441,1.66969,12.65963,12.65963,0,0,0-.28572,1.82413,15.25259,15.25259,0,0,1-.535,2.73.333.333,0,0,0-.00778.15451,4.75925,4.75925,0,0,1-.45645,2.26349,3.25151,3.25151,0,0,0-.11932,1.6884.82648.82648,0,0,0,.20354.40353,2.09215,2.09215,0,0,0,.5827.50557.92052.92052,0,0,1,.52985.70145.40548.40548,0,0,0,.48385.26921,1.48051,1.48051,0,0,0,.29583-.09038,1.12848,1.12848,0,0,1,1.17933.01195,1.40137,1.40137,0,0,0,.59367.149c.36093.03492.72492.03818,1.08762.05468A11.5795,11.5795,0,0,0,277.62979,130.73372Zm15.959-45.83214a2.24517,2.24517,0,0,1,.30564,1.46753,1.10293,1.10293,0,0,0,.01966.46438,4.21921,4.21921,0,0,1,.168,1.53087,11.632,11.632,0,0,0,.07024,1.39245,7.61652,7.61652,0,0,1-.04028,1.55185,10.74011,10.74011,0,0,1-.59749,2.71577,14.31825,14.31825,0,0,0-.62151,1.75844,5.82872,5.82872,0,0,1-.68144,1.38616,13.93552,13.93552,0,0,0-.90018,1.79692c-.23624.518-.42155,1.05908-.65512,1.57837a5.01368,5.01368,0,0,1-1.00339,1.56156,4.5037,4.5037,0,0,0-.56563.73647,4.08835,4.08835,0,0,1-1.63666,1.605,7.985,7.985,0,0,0-1.11355.82988c-.04457.03188-.24543-.04389-.253-.08971a1.95821,1.95821,0,0,1-.05024-.76312,9.69637,9.69637,0,0,0,.3297-2.14466c.01926-.72159.25142-1.41861.28275-2.15017a21.177,21.177,0,0,1,.31818-2.29652c.158-1.02532.35823-2.04541.478-3.075a27.01928,27.01928,0,0,0,.46524-2.754.79092.79092,0,0,1,.06838-.30165c.61687-1.38952.60164-2.93665,1.08985-4.35777.09031-1.08316.28964-2.15624.29714-3.24715.00251-.36329.00588-.727.02539-1.08965A1.03317,1.03317,0,0,1,290.3441,81.98a2.40188,2.40188,0,0,1,1.92573.38783,3.85886,3.85886,0,0,0,.45035.26887A24.135,24.135,0,0,0,293.58876,84.90158ZM197.7,44.57329a2.65868,2.65868,0,0,0-.4645-.03716,1.19155,1.19155,0,0,0-1.21125.54019,1.324,1.324,0,0,1-.9459.72535,1.07255,1.07255,0,0,0-.54118.27674,3.3559,3.3559,0,0,0-1.21011,2.27759,3.3594,3.3594,0,0,1-.3642,1.3178,3.75521,3.75521,0,0,1-.84406,1.44515,3.43819,3.43819,0,0,0-.59049.89929,2.829,2.829,0,0,1-1.959,1.61956,1.313,1.313,0,0,0-.2907.10913.73959.73959,0,0,0-.50862.708c-.00038.09059-.038.23827-.09791.26255a4.65734,4.65734,0,0,0-1.6127,1.17947.31941.31941,0,0,1-.41622-.02149,1.35917,1.35917,0,0,1-.2755-1.57525.48921.48921,0,0,0-.01716-.57822,1.36946,1.36946,0,0,1-.28121-.71182,10.30241,10.30241,0,0,1-.15374-1.544,27.46166,27.46166,0,0,1,.03807-3.71934,4.59727,4.59727,0,0,0,.00057-.77714,3.27348,3.27348,0,0,1,.0176-.77595c.31731-1.25745.20716-2.58138.61009-3.82518a1.21411,1.21411,0,0,0,.049-.61392c-.26558-1.15436.27249-2.244.24884-3.37623a.24113.24113,0,0,1,.03595-.1497,2.04243,2.04243,0,0,0,.35958-1.32423,7.84567,7.84567,0,0,1,.49843-2.72949,3.28812,3.28812,0,0,0,.14921-.60413,13.22074,13.22074,0,0,1,.98022-2.77092,20.77124,20.77124,0,0,0,1.573-3.71465,2.704,2.704,0,0,1,.43366-.81745c.45887-.69087.95831-1.35554,1.4006-2.05651a9.76244,9.76244,0,0,1,2.13125-2.252,3.76993,3.76993,0,0,1,.81035-.45794.70213.70213,0,0,1,.98282.43053c.05852.14012.0659.32818.16538.41934a1.676,1.676,0,0,1,.438.78865,9.967,9.967,0,0,1,.19724,2.93517.59474.59474,0,0,1-.18192.396,1.62034,1.62034,0,0,0-.44038.80711,9.22824,9.22824,0,0,1-.35241,1.345c-.18475.42046-.5807.755-.73212,1.18125a3.2328,3.2328,0,0,1-.65456,1.03513,2.74842,2.74842,0,0,0-.342.51456.66392.66392,0,0,0-.02034.59865,1.6336,1.6336,0,0,0,1.907.97373,3.33716,3.33716,0,0,0,2.17827-1.37623,5.66386,5.66386,0,0,1,.4232-.45474,3.1519,3.1519,0,0,0,.737-1.35155c.0697-.41416.23253-.79384.31741-1.19585a9.21319,9.21319,0,0,0,.29051-2.46639c-.01855-.30726.03245-.6183.04391-.9279.01912-.51812.02068-1.03714.0515-1.55448a1.128,1.128,0,0,0-.33511-.83393.61171.61171,0,0,1-.14357-.41276,6.60788,6.60788,0,0,0-.73372-2.97967,2.381,2.381,0,0,0-1.61384-1.53355c-.70816-.30181-1.41591-.60312-2.141-.86294a6.36005,6.36005,0,0,0-2.10527-.504,1.815,1.815,0,0,1-1.49135-.70073.7034.7034,0,0,0-.3725-.26217,9.239,9.239,0,0,1-1.293-.51832,1.48139,1.48139,0,0,0-.455-.08913,15.30521,15.30521,0,0,0-1.863.07234,3.44959,3.44959,0,0,0-1.57033.61973c-1.47579,1.05966-2.80271,2.30111-4.24657,3.40015a6.2543,6.2543,0,0,0-1.99431,2.70625,2.4186,2.4186,0,0,1-.32352.52531,15.97,15.97,0,0,0-2.36461,3.99882,4.538,4.538,0,0,1-.43111.82627,9.016,9.016,0,0,0-1.0945,2.38442c-.22137.63882-.39132,1.28787-.56243,1.93993a7.09587,7.09587,0,0,0-.49206,2.09751,1.08791,1.08791,0,0,0-.0283,1.039.59728.59728,0,0,1-.018.44765,2.35048,2.35048,0,0,0-.17611,1.215,3.73154,3.73154,0,0,1-.18636,1.37685,10.48363,10.48363,0,0,0-.48665,3.21754,2.662,2.662,0,0,1-.10359,1.07575,3.68843,3.68843,0,0,0-.07709,1.99551c.04952.35947.12991.71465.19459,1.07208a.93218.93218,0,0,1-.093.59975,1.26514,1.26514,0,0,0-.14382.43624c-.0449.51489-.063,1.03206-.09885,1.54783a10.51885,10.51885,0,0,0-.09807,1.38518,10.73259,10.73259,0,0,1-.128,1.54636.59272.59272,0,0,0,.038.30242,2.84983,2.84983,0,0,1,.18132,1.37558,3.80824,3.80824,0,0,0,.33173,1.51283,8.87729,8.87729,0,0,1,.65009,2.37855,5.36426,5.36426,0,0,0,.453,1.477c.11883.26285.40954.448.62282.66816.69626.04614,1.17821.63822,1.86782.72605a1.94915,1.94915,0,0,1,.69557.324,3.98626,3.98626,0,0,0,.85976.33867,3.25865,3.25865,0,0,0,1.35941.26794c.5487-.05975.98813.28837,1.49928.35284a1.9843,1.9843,0,0,0,.31059.00232c.7262-.02348,1.45215-.05913,2.17852-.07023,1.035-.01582,2.04507-.30213,3.08451-.26838a2.09317,2.09317,0,0,0,1.14843-.43063,3.37138,3.37138,0,0,0,1.0626-.88837c.332-.46333,1.00453-.17135,1.41129-.53622.15291-.13718.33078-.24635.49559-.37049.8878-.66863,1.267-1.76118,2.07591-2.49758.06721-.0612.07384-.18908.10826-.28609a4.86481,4.86481,0,0,1,.2092-.57918c.46825-.92416,1.139-1.733,1.53355-2.70207a1.37414,1.37414,0,0,1,.39041-.47991,8.8766,8.8766,0,0,0,1.632-2.06195q.25019-.39365.52186-.77348a1.4174,1.4174,0,0,1,.718-.57078.81305.81305,0,0,0,.52249-.87145c.00091-.5663-.0963-1.13276-.16369-1.817C198.48891,44.8021,198.0973,44.6768,197.7,44.57329Zm-82.6513,45.18594a5.69739,5.69739,0,0,0-2.75655.30334,4.61511,4.61511,0,0,1-1.98427.31164c-.62225-.00658-1.24585.01986-1.86728.05769a4.79862,4.79862,0,0,0-2.05961.64835,1.40723,1.40723,0,0,0-.65773.63888,4.64886,4.64886,0,0,0-.42979.81907A6.77186,6.77186,0,0,0,104.957,94.356c.01406.21251.05964.41661-.09337.58167a1.4853,1.4853,0,0,0-.37043.84082,5.53911,5.53911,0,0,1-.5644,1.925,1.69393,1.69393,0,0,0-.12084.448c-.30153,1.42259-.086,2.89966-.45424,4.318a1.29681,1.29681,0,0,0,.07091.61071,1.34305,1.34305,0,0,1-.02893.75992c-.11894.396-.21222.80038-.29954,1.20484a2.54358,2.54358,0,0,0-.1047.76406,3.88408,3.88408,0,0,1-.38747,1.95907,3.28358,3.28358,0,0,0-.29928,1.35949,17.13386,17.13386,0,0,1-.22129,2.15245,5.01809,5.01809,0,0,0-.03985,1.23278,3.63,3.63,0,0,1-.19417,1.83522,2.384,2.384,0,0,0-.1081.91638,7.89816,7.89816,0,0,1-.50046,3.948,1.29448,1.29448,0,0,0-.082.45505,8.60591,8.60591,0,0,0-.10267,1.39567,3.21707,3.21707,0,0,1-.52553,2.07078,2.284,2.284,0,0,0-.34264,1.47529c.03292.8297.08183,1.65919.0932,2.48918.00842.615-.15266,1.24378.2907,1.79584a.63377.63377,0,0,1,.03542.45306,1.68146,1.68146,0,0,0,.23777,1.04419c.49524,1.08018,1.03888,2.13805,1.55447,3.20905a3.63884,3.63884,0,0,0,.92163,1.25364c.44551.09818.90045.20078,1.35642.29853a12.93869,12.93869,0,0,0,4.001.43667c.20776.00068.41556.00475.62327.00221a10.20193,10.20193,0,0,0,3.6269-.77907c.62317-.24618,1.24933-.49862,1.86666-.76533a3.22835,3.22835,0,0,0,1.92572-1.65592c.118-.28251.26037-.556.36755-.84864.19542-.53361.36389-1.07522.609-1.595a7.9602,7.9602,0,0,0,.58055-1.75579,2.6103,2.6103,0,0,1,.377-.99828,2.41374,2.41374,0,0,0,.43258-.81981c.1562-.76879.53389-1.4555.74354-2.20234a3.47931,3.47931,0,0,1,.537-1.26622,3.8066,3.8066,0,0,0,.49289-1.13641,10.28237,10.28237,0,0,1,.58612-1.43185,5.89889,5.89889,0,0,0,.58252-1.59518,3.35879,3.35879,0,0,1,.24358-.72973,14.14567,14.14567,0,0,0,1.14717-3.37447,2.23137,2.23137,0,0,1,.38075-1.001c.21641-.28242.04193-.69072.27965-1.0191a3.80655,3.80655,0,0,0,.71283-2.3377c-.01143-.57653.34058-1.09873.18855-1.68521a.50146.50146,0,0,1,.0753-.297c.49583-1.02457.53715-2.21286,1.152-3.19507a.55182.55182,0,0,0,.08654-.29459,4.882,4.882,0,0,1,.32815-1.35233,7.23283,7.23283,0,0,0,.3432-1.81853c-.02886-1.15174.30181-2.25691.31727-3.39591a1.07359,1.07359,0,0,1,.04384-.3057c.3595-1.13534.42107-2.34137.8233-3.4667a1.49439,1.49439,0,0,0,.04856-.30648A1.15738,1.15738,0,0,0,127.184,92.844a8.33709,8.33709,0,0,0-.929.0063.99577.99577,0,0,0-.85772,1.1146,1.19754,1.19754,0,0,0,.1142.44784,2.60181,2.60181,0,0,1,.10838,1.67754c-.069.30176-.12506.60644-.19216.90864a5.46207,5.46207,0,0,0-.201.907,9.7906,9.7906,0,0,1,.029,1.37956,9.14183,9.14183,0,0,0-.39917,1.33182c-.01527.30858-.07057.6158-.07477.9241a1.9421,1.9421,0,0,1-.175.74523,19.18616,19.18616,0,0,0-1.25917,4.62474c-.24338.29153-.77321.45918-.43384,1.00273a1.75052,1.75052,0,0,1-.40435,1.44786,1.82158,1.82158,0,0,0-.4478.97869,1.48683,1.48683,0,0,1-.56932.89652,1.01635,1.01635,0,0,0-.35372.97708c.02786.25444.07049.50725.10679.7627a13.52752,13.52752,0,0,1-.89968,1.62446.41277.41277,0,0,0-.1146.28087c.06727.52314-.31111.8629-.51277,1.26939a4.91321,4.91321,0,0,0-.51912,1.78263c-.02636.30963-.05167.61935-.07347.88119a10.04648,10.04648,0,0,0-.74131,1.04941c-.36444.68582-.69228,1.39228-1.00767,2.10244a3.75961,3.75961,0,0,0-.323,1.03145,2.41618,2.41618,0,0,1-.38606,1.00091,3.46575,3.46575,0,0,0-.66456,1.55712,1.727,1.727,0,0,1-.29492.70928c-.18947.30878-.436.58222-.63133.88785a1.16157,1.16157,0,0,0-.22847.56168,3.08942,3.08942,0,0,1-.792,1.81743,2.01274,2.01274,0,0,1-.47953.38868.44367.44367,0,0,1-.54438-.12576,3.73438,3.73438,0,0,1-.40225-1.64776c-.01981-.879-.109-1.75308-.21523-2.62387a2.14642,2.14642,0,0,1,.13178-1.35427,2.751,2.751,0,0,0,.11721-1.06626,16.17241,16.17241,0,0,1,.55468-4.4401,1.36961,1.36961,0,0,0,.06741-.45841,8.77537,8.77537,0,0,1,.27967-2.3046,23.39986,23.39986,0,0,0,.30724-2.46575,4.89823,4.89823,0,0,1,.08275-.77178c.40128-1.6154.42417-3.28886.76438-4.91308a.73755.73755,0,0,0,.0216-.30786,2.22743,2.22743,0,0,1,.31976-1.926.232.232,0,0,0,.0357-.14986,10.71332,10.71332,0,0,1,.27542-2.14961c.07582-.92952.17809-1.85412.29986-2.77833a5.35417,5.35417,0,0,0-.007-1.08275A10.34456,10.34456,0,0,1,115.847,96.753a5.11244,5.11244,0,0,0,.24479-1.83941,4.10651,4.10651,0,0,1,.63912-2.36185.95779.95779,0,0,0,.1787-.42085,2.34134,2.34134,0,0,0-.48429-2.00259A7.02094,7.02094,0,0,0,115.04872,89.75923ZM245.14256,97.341a3.23338,3.23338,0,0,0,.83211,2.41807.32835.32835,0,0,1,.09974.27043c-.14637.42074.11485.79947.1,1.20158a1.44494,1.44494,0,0,0,.46861,1.11731c.748.71505,1.52809,1.39684,2.30259,2.08375a1.70689,1.70689,0,0,0,.40312.23184c.65413.31316,1.30631.63106,1.96819.92715a4.83451,4.83451,0,0,0,1.02154.36675,10.87461,10.87461,0,0,0,2.46291.32087c1.19172-.04094,2.38594-.0364,3.57512-.11287a11.50111,11.50111,0,0,0,1.51115-.33454c.40637-.083.825-.11065,1.22735-.20765q1.20842-.29133,2.40258-.64a1.64561,1.64561,0,0,0,.51626-.33679,14.21407,14.21407,0,0,0,3.21965-4.14231,2.86124,2.86124,0,0,1,.28916-.54214,3.06225,3.06225,0,0,0,.71558-1.69063,2.053,2.053,0,0,1,.12637-.60173,3.64462,3.64462,0,0,0,.51714-1.76889,7.208,7.208,0,0,0,.43376-1.80523c.36641-1.244.668-2.50712,1.03546-3.75082a8.63979,8.63979,0,0,0,.342-2.13669,10.93971,10.93971,0,0,1,.15128-1.70329c.26215-1.32214.3858-2.66519.64251-3.98737a5.39029,5.39029,0,0,0,.07716-.77251,15.77829,15.77829,0,0,0-.06231-2.64287,3.21226,3.21226,0,0,1,.082-1.83444.77.77,0,0,0,.02584-.3082q.02253-3.11092.04379-6.22185a8.72031,8.72031,0,0,1,.1603-1.69974,11.53313,11.53313,0,0,0,.15161-1.7.97484.97484,0,0,0-.28347-.6978,1.46121,1.46121,0,0,0-1.36381-.56206,1.78889,1.78889,0,0,0-1.52407.9182c-.14574.2725-.30138.5397-.46751.836.2142.30126.41865.58992.6244.87767a1.0986,1.0986,0,0,1,.20809.5747,21.22537,21.22537,0,0,1-.29765,4.96393c-.04874.29783-.272.569-.31076.86607a7.89759,7.89759,0,0,0,.03372,1.08623c.00558.51821.01772,1.03819-.01637,1.55455a6.467,6.467,0,0,1-.24516,2.14637,1.052,1.052,0,0,0-.02019.75983,2.571,2.571,0,0,1-.17134,2.09006,5.349,5.349,0,0,1-.26954.72914,2.51027,2.51027,0,0,0-.31272,1.18925,20.74014,20.74014,0,0,1-.4363,3.39369,10.93139,10.93139,0,0,1-1.26682,3.64651.98941.98941,0,0,0-.19224.73137.37359.37359,0,0,1-.12589.41428,2.18476,2.18476,0,0,0-.72972,1.49922,8.00834,8.00834,0,0,1-.40048,1.80245,1.29362,1.29362,0,0,1-.43876,1.11038,3.87506,3.87506,0,0,0-.552.74977,1.0046,1.0046,0,0,0-.20583.56241,1.74173,1.74173,0,0,1-.69044,1.4979,14.92745,14.92745,0,0,0-1.34907,1.47969.43325.43325,0,0,1-.56527.01565c-.46583-.55321-.93945-1.10009-1.39525-1.66143a2.02963,2.02963,0,0,1-.29531-.53442c-.075-.19057-.05823-.43026-.16582-.59269a5.03023,5.03023,0,0,1-.6531-1.89484,4.81731,4.81731,0,0,0-.28442-.886,5.7596,5.7596,0,0,1-.31385-1.35828c-.13636-.92666-.07858-1.86362-.17316-2.78531-.086-.83791.12406-1.65111.04478-2.47656a7.60489,7.60489,0,0,0,.1725-2.00825,22.20882,22.20882,0,0,1,.30084-4.01843,4.91781,4.91781,0,0,0,.0315-.93057c.01224-.51886-.01513-1.04243.04644-1.55534a7.72723,7.72723,0,0,0,.00184-1.70761,10.18578,10.18578,0,0,1,.02065-1.55085,23.88825,23.88825,0,0,1,.38657-2.92615,2.3311,2.3311,0,0,0,.03467-.76194,4.54573,4.54573,0,0,1-.02063-.92875,3.14459,3.14459,0,0,0-.02019-1.53864.73948.73948,0,0,1,.06674-.44622c.16293-.49143.33975-.97826.5129-1.46628.06927-.19527.15859-.38489.211-.58439a1.14326,1.14326,0,0,0-.69442-1.26133,4.48814,4.48814,0,0,0-3.03832-.03655,2.80126,2.80126,0,0,1-.74081.23192,2.10932,2.10932,0,0,1-.92034.01492c-.693-.23063-1.41822-.279-2.11819-.45972a4.53383,4.53383,0,0,0-3.03491.219c-.78343.31252-1.37626.92164-2.11563,1.3a.80856.80856,0,0,0-.3092.339,4.57808,4.57808,0,0,0-.69638,2.49938c.06031.87251-.11681,1.75992-.07938,2.63606a4.02446,4.02446,0,0,1-.21711,1.67274,1.8637,1.8637,0,0,0-.08434.76089,6.05438,6.05438,0,0,1-.04752,1.54587,21.93551,21.93551,0,0,0-.06646,2.63123,3.22194,3.22194,0,0,1-.03268,1.98805c-.06107.30545-.14209.60827-.17946.91648a.622.622,0,0,0,.08442.43764.62953.62953,0,0,1-.04094.95456.85808.85808,0,0,0-.18323.7302,4.78061,4.78061,0,0,1,.16359.8957,4.55782,4.55782,0,0,1-.26217.88841,2.976,2.976,0,0,0-.094,1.07754,8.62771,8.62771,0,0,1-.05553,1.69986,10.80659,10.80659,0,0,0,.14351,1.84983,2.83362,2.83362,0,0,1-.02917.776,8.63435,8.63435,0,0,0,.01743,2.01195.80955.80955,0,0,0,.48892.74165c.08206.03742.12781.15451.21933.27248A8.62039,8.62039,0,0,0,245.14256,97.341Zm-150.733,23.3721a2.96943,2.96943,0,0,0,2.83071-.14667.69188.69188,0,0,0,.40595-.61429c.01789-1.03845.03431-2.07737.02179-3.11575a10.94756,10.94756,0,0,0-.26636-3.09058,2.25779,2.25779,0,0,1-.02934-.77106c.03189-.517.06838-1.035.13719-1.5481a26.56922,26.56922,0,0,0,.19986-3.56477,6.08492,6.08492,0,0,1,.006-.62316,10.46832,10.46832,0,0,0-.46163-4.1427,3.81605,3.81605,0,0,1-.16857-1.37885,2.39562,2.39562,0,0,0-.56227-1.86856,2.14118,2.14118,0,0,1-.45848-1.45777A2.41084,2.41084,0,0,0,96.018,97.467a4.39769,4.39769,0,0,1-.176-1.53137,13.96482,13.96482,0,0,1-.12013-2.47181,2.23391,2.23391,0,0,0-.09865-.45293,2.34624,2.34624,0,0,1-.04173-.61483,14.48665,14.48665,0,0,0-.15638-2.9391c-.07161-1.078-.39141-2.13735-.52127-3.21469a15.15332,15.15332,0,0,0-.394-1.47871A5.05385,5.05385,0,0,0,93.99,82.692a.42056.42056,0,0,1-.05391-.299c.1343-.64521-.45529-1.15934-.31744-1.8014a1.79566,1.79566,0,0,0-1.49113-1.39952,8.4483,8.4483,0,0,0-2.74784.38656,2.86351,2.86351,0,0,1-1.71392.643,2.57515,2.57515,0,0,1-1.37071-.09852,1.8561,1.8561,0,0,0-.91073-.14654,4.31587,4.31587,0,0,0-3.24105,1.90242,3.36308,3.36308,0,0,0-.56244,1.4387,1.43673,1.43673,0,0,1-.29172.86568.6633.6633,0,0,0-.13483.4294,1.76556,1.76556,0,0,1-.19035.89434,6.79938,6.79938,0,0,0-.34022,1.03248,2.25386,2.25386,0,0,0-.22451,1.05577c.07532.404-.31515.626-.3195,1.01693a8.02074,8.02074,0,0,1-.58679,2.71991,1.804,1.804,0,0,0-.17947.74148,2.94135,2.94135,0,0,1-.328,1.502,2.227,2.227,0,0,0-.277,1.48438.63658.63658,0,0,1-.03933.44744,2.58553,2.58553,0,0,0-.34376,1.49639,2.90266,2.90266,0,0,1-.43858,1.62437,2.38652,2.38652,0,0,0-.18822.58366q-.30719.95928-.61713,1.9177c-.4397.26071-.26069.59788-.094.97772-.48582.70789-.34378,1.69043-.93856,2.4a.36807.36807,0,0,0-.04041.29278,1.29844,1.29844,0,0,1-.22289,1.03526,3.30125,3.30125,0,0,0-.32341,1.17856,2.8894,2.8894,0,0,1-.63962,1.86435,1.15936,1.15936,0,0,0-.24718.56038c-.09747.40116-.17708.80814-.237,1.21669a25.62,25.62,0,0,1-.59169,3.68143,2.5561,2.5561,0,0,0,.08184,1.52887,3.56471,3.56471,0,0,0,1.09251,1.546,6.48078,6.48078,0,0,1,2.06634.46453,4.90761,4.90761,0,0,0,3.638-.20055c.85126-.37926,1.67346-.82547,2.53211-1.18587a3.853,3.853,0,0,0,1.4762-1.10848c.33279-.39456.80895-.68972.96918-1.20259a1.51509,1.51509,0,0,1,.79249-.88951.24727.24727,0,0,0-.02213-.39463c-.18849-.08392-.3871-.14573-.57312-.23435a.32919.32919,0,0,1-.10953-.51453c.192-.23378.484-.4174.28284-.7957a.40708.40708,0,0,1-.032-.30257,17.17933,17.17933,0,0,0,.43117-2.28348,7.12229,7.12229,0,0,1,.58124-1.58853,1.1252,1.1252,0,0,0,.179-.86547.8765.8765,0,0,1,.21809-.86687,1.31273,1.31273,0,0,0,.36766-.99.78961.78961,0,0,1,.515-.71616,3.07924,3.07924,0,0,1,.72831-.25721,15.209,15.209,0,0,1,1.68594-.27961,14.91125,14.91125,0,0,1,1.71058-.01859.50271.50271,0,0,1,.45677.37095,4.11344,4.11344,0,0,1,.26008,1.368c-.03364.72447-.0223,1.4513-.01866,2.17707.001.20482-.03046.46671.07786.60355.34416.43474.16224.89167.14332,1.34463a5.93016,5.93016,0,0,0,.10576,1.70383,1.20241,1.20241,0,0,1-.03408.6043,5.73478,5.73478,0,0,0,.05147,3.221,6.219,6.219,0,0,1,.215,2.30846,7.97673,7.97673,0,0,1-.24469,2.303.33444.33444,0,0,0,.13181.41238c.31049.19762.18607.57781.39235.87672C94.03769,120.54116,94.225,120.62436,94.40955,120.7131ZM91.77492,93.949c-.00279.56012.17433,1.12019.18271,1.68161a11.65523,11.65523,0,0,0,.14223,1.6996,6.247,6.247,0,0,1,.03391.77285c.00919.25725.00059.51648.02964.77143.10522.92355.06465.98933-.73179,1.20739a5.94981,5.94981,0,0,1-1.98674.29742c-.195-.01337-.41781-.22765-.38511-.403q.26922-1.44273.54529-2.88418a1.25285,1.25285,0,0,1,.032-.15211c.11065-.34281.47285-.55456.48371-.95367a3.30114,3.30114,0,0,1,.08169-1.0792c.34453-.87753.3457-1.81986.59856-2.71011a.39626.39626,0,0,1,.463-.31334A5.04955,5.04955,0,0,1,91.77492,93.949Zm65.116-52.78944c-.01255.25854-.00263.5181-.00844.77708-.0058.25868-.00757.51816-.02993.77566-.07137.82185-.16988,1.64174-.22362,2.46463-.07084,1.08445-.11571,2.17077-.15967,3.25677a31.48525,31.48525,0,0,0-.14757,3.25558.92.92,0,0,1-.07219.45649,2.12,2.12,0,0,0-.12677,1.0561,10.17233,10.17233,0,0,1-.12121,1.70295,45.01424,45.01424,0,0,1-.63251,5.23231,1.29026,1.29026,0,0,0-.02293.4645,5.12647,5.12647,0,0,1-.23642,1.51874c-.08476.42752-.49078.85767-.06654,1.31528a3.87716,3.87716,0,0,1-.19777.8979.97921.97921,0,0,0-.13877.725,1.08532,1.08532,0,0,1-.042.76231.98636.98636,0,0,0,.21536,1.1403c.13166.15852.23389.34127.35257.51085a1.29973,1.29973,0,0,0,1.04352.591,1.577,1.577,0,0,1,.87462.24179c.46715.31408,1.07573.3118,1.55683.62307a.527.527,0,0,0,.30416.0292c.61874-.05328,1.23673-.11538,1.85525-.17136a1.10348,1.10348,0,0,0,.7227-.24037,1.44152,1.44152,0,0,1,1.14846-.3573,1.3926,1.3926,0,0,0,1.01662-.31678,18.37248,18.37248,0,0,0,2.15253-2.01566,1.81608,1.81608,0,0,0,.48882-1.26908,7.143,7.143,0,0,1,.28206-2.286,7.176,7.176,0,0,0,.19452-1.84189,7.17882,7.17882,0,0,1,.26669-2.92353,1.23447,1.23447,0,0,0,.04767-.46218,1.7431,1.7431,0,0,1,.37669-1.15524.48656.48656,0,0,0,.04862-.42729,1.761,1.761,0,0,1-.16736-.90458,9.11249,9.11249,0,0,1,.19882-2.00925,8.103,8.103,0,0,0,.16873-2.47171,5.974,5.974,0,0,1,.021-1.08087c.07456-.56212.05142-1.13733.12831-1.699.08389-.61264-.00476-1.2263.05083-1.82893.05759-.62448-.069-1.24775.00912-1.84968.11413-.87926.069-1.76558.181-2.63206.11256-.87085.22707-1.7451.36082-2.61475.04752-.309.04046-.61763.068-.92282.15811-1.75347.08144-3.52139.33309-5.26849a4.51052,4.51052,0,0,0,.02373-.62141,15.01021,15.01021,0,0,1,.19374-2.32332,2.66646,2.66646,0,0,0,.04413-.92362,2.96928,2.96928,0,0,1,.13235-1.67407,2.99325,2.99325,0,0,0,.06206-1.67833,1.10328,1.10328,0,0,0-.92011-.93172,3.93985,3.93985,0,0,0-2.14491.077,23.26569,23.26569,0,0,0-4.23623,1.91809,4.26634,4.26634,0,0,0-1.19382.98418c-.65065.80242-1.27906,1.62306-1.90578,2.4445a2.7627,2.7627,0,0,0-.29263.54407,11.96736,11.96736,0,0,0-.546,1.27862,12.46135,12.46135,0,0,0-.29438,1.36136,2.10535,2.10535,0,0,1-.10368.60707,1.56022,1.56022,0,0,0-.112,1.347.7279.7279,0,0,1-.07506.59737,3.4414,3.4414,0,0,0-.47051,2.23784,3.44258,3.44258,0,0,1-.11167.80811A10.6165,10.6165,0,0,1,156.891,41.15957ZM211.81878,73.366a1.48755,1.48755,0,0,1,.6017-.09907,33.47486,33.47486,0,0,0,4.32863-.42472,4.59566,4.59566,0,0,0,1.203-.30891,2.006,2.006,0,0,0,1.16118-.982.67987.67987,0,0,0-.06693-.7298,2.85139,2.85139,0,0,0-1.42714-.86878,12.61031,12.61031,0,0,0-2.79464-.14144,6.98908,6.98908,0,0,0-1.84635.20062c-1.04964.27574-2.13121.42929-3.1984.63919a2.1348,2.1348,0,0,0-.74633.19157c-.56432.37021-1.21388.55281-1.77863.94446A5.98884,5.98884,0,0,1,204.3,73.09665c-.65551.16219-1.29946.35076-1.94108.55705a7.16172,7.16172,0,0,1-2.43221.4719,8.82716,8.82716,0,0,0-3.81166.588.453.453,0,0,1-.15168.03263,3.38736,3.38736,0,0,0-1.44878.52935c-.27309.14954-.55715.27976-.82568.43679a2.59326,2.59326,0,0,1-2.10314.21711,1.39566,1.39566,0,0,0-.29219-.08923c-.09654-.00434-.24141.00814-.28581.07007A5.3135,5.3135,0,0,1,189.69,76.9775a1.01467,1.01467,0,0,0-.30131,1.48673c.15088.26188.40187.46278.3554.82211-.02319.17919.16361.26971.3139.28083a6.97625,6.97625,0,0,0,1.08311.01695c.4648-.03833.92788-.11384,1.38741-.197a12.9317,12.9317,0,0,0,3.89007-1.04233,2.57924,2.57924,0,0,1,.59452-.16426c.19351-.04762.4641.14363.43308.31973a8.89253,8.89253,0,0,0,.00087,2.01574c.02885.5695-.00929,1.14225.01462,1.7122.0176.41963-.29843.79518-.15688,1.21634a7.04226,7.04226,0,0,1,.11118,1.38983,6.74135,6.74135,0,0,1-.13927,2.47213,1.2665,1.2665,0,0,0,.01538.76331,1.19838,1.19838,0,0,1,.01576.76053,4.99018,4.99018,0,0,0-.09727.766c-.13185,1.23494-.23268,2.47426-.40868,3.70284-.06636.4634-.1058.9177-.12753,1.38435-.05285,1.13441.10994,2.26747-.0083,3.39985.16072.61531-.06231,1.25163.04054,1.84664.20521,1.18729.08924,2.38044.192,3.56687a8.43217,8.43217,0,0,1-.09239,1.395,11.65789,11.65789,0,0,0-.09961,1.23891,1.36858,1.36858,0,0,0,.235.71836,5.95527,5.95527,0,0,1,.64685.857.497.497,0,0,0,.3994.19917,1.22758,1.22758,0,0,1,1.22819.47949c.11584.16712.36663.16734.57944.16029.25548-.00848.53183-.08663.75275.08781a.94893.94893,0,0,0,1.273.04332,1.59342,1.59342,0,0,1,.89424-.21606,4.304,4.304,0,0,0,1.94611-.491.985.985,0,0,1,.44147-.12777,1.90135,1.90135,0,0,0,.99875-.39445,4.53508,4.53508,0,0,1,.6696-.39414,3.14436,3.14436,0,0,0,1.21877-.66029,9.86816,9.86816,0,0,0,.72677-1.18949,1.221,1.221,0,0,0,.22219-.73045,3.19961,3.19961,0,0,1,.14582-.91293,5.00724,5.00724,0,0,0-.01513-3.05512,3.09092,3.09092,0,0,1-.08227-.75959c-.02944-.25461-.059-.50993-.10646-.76153a6.0506,6.0506,0,0,1-.17119-.74911,43.81065,43.81065,0,0,1-.076-5.43257c.07015-1.03557.16016-2.06649.29689-3.098a16.53722,16.53722,0,0,1,.39254-2.60244,1.82977,1.82977,0,0,0-.00162-.60518,29.95442,29.95442,0,0,1,.00186-3.26493c.03348-.41094.16516-.81716.17015-1.22652.01387-1.13812-.01525-2.27676-.02737-3.4152a5.23892,5.23892,0,0,1,.19509-3.06222c.09261-.29528.15347-.60052.23287-.91713A4.596,4.596,0,0,1,211.81878,73.366Z" transform="translate(0 -10.52075)" style="fill: #fff"/></svg>
